<?xml version="1.0" encoding="UTF-8" standalone="no"?>
<!DOCTYPE svg PUBLIC "-//W3C//DTD SVG 1.1//EN"
 "http://www.w3.org/Graphics/SVG/1.1/DTD/svg11.dtd">
<!-- Generated by graphviz version 2.47.3 (20210619.1520)
 -->
<!-- Title: cuboid_leaf_cloud_params Pages: 1 -->
<svg width="393pt" height="208pt"
 viewBox="0.00 0.00 429.00 227.00" xmlns="http://www.w3.org/2000/svg" xmlns:xlink="http://www.w3.org/1999/xlink">
<g id="graph0" class="graph" transform="scale(0.92 0.92) rotate(0) translate(4 223)">
<title>cuboid_leaf_cloud_params</title>
<polygon fill="white" stroke="transparent" points="-4,4 -4,-223 425,-223 425,4 -4,4"/>
<g id="clust1" class="cluster">
<title>cluster_params</title>
<polygon fill="none" stroke="black" stroke-dasharray="1,5" points="8,-64 8,-211 269,-211 269,-64 8,-64"/>
<text text-anchor="middle" x="138.5" y="-195.8" font-family="sans-serif" font-size="14.00">define 3 of ...</text>
</g>
<!-- n_leaves -->
<g id="node1" class="node">
<title>n_leaves</title>
<ellipse fill="none" stroke="#ff3399" stroke-width="5" cx="63" cy="-162" rx="47.39" ry="18"/>
<text text-anchor="middle" x="63" y="-158.3" font-family="sans-serif" font-size="14.00">n_leaves</text>
</g>
<!-- l_horizontal -->
<g id="node2" class="node">
<title>l_horizontal</title>
<ellipse fill="none" stroke="#ff3399" stroke-width="5" cx="204" cy="-162" rx="57.39" ry="18"/>
<text text-anchor="middle" x="204" y="-158.3" font-family="sans-serif" font-size="14.00">l_horizontal</text>
</g>
<!-- n_leaves&#45;&gt;l_horizontal -->
<g id="edge1" class="edge">
<title>n_leaves&#45;&gt;l_horizontal</title>
<path fill="none" stroke="black" d="M120.8,-162C126.07,-162 131.34,-162 136.61,-162"/>
<polygon fill="black" stroke="black" points="120.64,-158.5 110.64,-162 120.64,-165.5 120.64,-158.5"/>
<polygon fill="black" stroke="black" points="136.75,-165.5 146.75,-162 136.75,-158.5 136.75,-165.5"/>
</g>
<!-- leaf_radius -->
<g id="node4" class="node">
<title>leaf_radius</title>
<ellipse fill="none" stroke="black" cx="91" cy="-90" rx="55.49" ry="18"/>
<text text-anchor="middle" x="91" y="-86.3" font-family="sans-serif" font-size="14.00">leaf_radius</text>
</g>
<!-- n_leaves&#45;&gt;leaf_radius -->
<g id="edge6" class="edge">
<title>n_leaves&#45;&gt;leaf_radius</title>
<path fill="none" stroke="black" d="M73.57,-134.57C75.77,-129.07 78.09,-123.27 80.3,-117.76"/>
<polygon fill="black" stroke="black" points="70.24,-133.47 69.78,-144.05 76.74,-136.07 70.24,-133.47"/>
<polygon fill="black" stroke="black" points="83.63,-118.86 84.09,-108.28 77.13,-116.26 83.63,-118.86"/>
</g>
<!-- l_horizontal&#45;&gt;leaf_radius -->
<g id="edge2" class="edge">
<title>l_horizontal&#45;&gt;leaf_radius</title>
<path fill="none" stroke="black" d="M170.4,-140.18C155.87,-131.19 138.92,-120.68 124.41,-111.7"/>
<polygon fill="black" stroke="black" points="168.86,-143.35 179.2,-145.64 172.54,-137.4 168.86,-143.35"/>
<polygon fill="black" stroke="black" points="126.08,-108.62 115.74,-106.33 122.4,-114.57 126.08,-108.62"/>
</g>
<!-- lai -->
<g id="node3" class="node">
<title>lai</title>
<ellipse fill="none" stroke="#ff3399" stroke-width="5" cx="209" cy="-90" rx="27" ry="18"/>
<text text-anchor="middle" x="209" y="-86.3" font-family="sans-serif" font-size="14.00">lai</text>
</g>
<!-- lai&#45;&gt;n_leaves -->
<g id="edge4" class="edge">
<title>lai&#45;&gt;n_leaves</title>
<path fill="none" stroke="black" d="M178.41,-105.67C155.73,-116.54 124.69,-131.42 100.51,-143.01"/>
<polygon fill="black" stroke="black" points="180.07,-108.75 187.57,-101.27 177.04,-102.44 180.07,-108.75"/>
<polygon fill="black" stroke="black" points="98.65,-140.02 91.15,-147.5 101.68,-146.34 98.65,-140.02"/>
</g>
<!-- lai&#45;&gt;l_horizontal -->
<g id="edge5" class="edge">
<title>lai&#45;&gt;l_horizontal</title>
<path fill="none" stroke="black" d="M207.06,-118.1C206.7,-123.21 206.32,-128.55 205.95,-133.67"/>
<polygon fill="black" stroke="black" points="210.56,-118.33 207.78,-108.1 203.57,-117.83 210.56,-118.33"/>
<polygon fill="black" stroke="black" points="202.46,-133.47 205.24,-143.7 209.44,-133.97 202.46,-133.47"/>
</g>
<!-- l_vertical -->
<g id="node5" class="node">
<title>l_vertical</title>
<ellipse fill="none" stroke="#ff3399" stroke-width="5" cx="259" cy="-18" rx="46.59" ry="18"/>
<text text-anchor="middle" x="259" y="-14.3" font-family="sans-serif" font-size="14.00">l_vertical</text>
</g>
<!-- lai&#45;&gt;l_vertical -->
<g id="edge8" class="edge">
<title>lai&#45;&gt;l_vertical</title>
<path fill="none" stroke="black" d="M220.1,-73.46C226.33,-64.74 234.25,-53.65 241.31,-43.76"/>
<polygon fill="black" stroke="black" points="244.27,-45.64 247.24,-35.47 238.58,-41.57 244.27,-45.64"/>
</g>
<!-- leaf_radius&#45;&gt;lai -->
<g id="edge3" class="edge">
<title>leaf_radius&#45;&gt;lai</title>
<path fill="none" stroke="black" d="M156.51,-90C161.47,-90 166.43,-90 171.39,-90"/>
<polygon fill="black" stroke="black" points="156.31,-86.5 146.31,-90 156.31,-93.5 156.31,-86.5"/>
<polygon fill="black" stroke="black" points="171.57,-93.5 181.57,-90 171.57,-86.5 171.57,-93.5"/>
</g>
<!-- leaf_radius&#45;&gt;l_vertical -->
<g id="edge7" class="edge">
<title>leaf_radius&#45;&gt;l_vertical</title>
<path fill="none" stroke="black" d="M123.79,-75.34C151.07,-63.97 190.01,-47.75 219.1,-35.63"/>
<polygon fill="black" stroke="black" points="220.67,-38.76 228.55,-31.69 217.98,-32.3 220.67,-38.76"/>
</g>
<!-- hdo -->
<g id="node6" class="node">
<title>hdo</title>
<ellipse fill="none" stroke="black" cx="304" cy="-90" rx="27" ry="18"/>
<text text-anchor="middle" x="304" y="-86.3" font-family="sans-serif" font-size="14.00">hdo</text>
</g>
<!-- hdo&#45;&gt;l_vertical -->
<g id="edge9" class="edge">
<title>hdo&#45;&gt;l_vertical</title>
<path fill="none" stroke="black" d="M293.79,-73.12C288.31,-64.59 281.43,-53.89 275.23,-44.25"/>
<polygon fill="black" stroke="black" points="278.15,-42.32 269.8,-35.8 272.26,-46.1 278.15,-42.32"/>
</g>
<!-- hvr -->
<g id="node7" class="node">
<title>hvr</title>
<ellipse fill="none" stroke="black" cx="394" cy="-90" rx="27" ry="18"/>
<text text-anchor="middle" x="394" y="-86.3" font-family="sans-serif" font-size="14.00">hvr</text>
</g>
<!-- hvr&#45;&gt;l_vertical -->
<g id="edge10" class="edge">
<title>hvr&#45;&gt;l_vertical</title>
<path fill="none" stroke="black" d="M373.94,-77.61C366.19,-73.28 357.22,-68.34 349,-64 331.82,-54.94 312.59,-45.26 296.33,-37.21"/>
<polygon fill="black" stroke="black" points="297.65,-33.96 287.13,-32.68 294.55,-40.24 297.65,-33.96"/>
</g>
</g>
</svg>
