<?xml version="1.0" encoding="UTF-8" standalone="no"?>
<!DOCTYPE svg PUBLIC "-//W3C//DTD SVG 1.1//EN"
 "http://www.w3.org/Graphics/SVG/1.1/DTD/svg11.dtd">
<!-- Generated by graphviz version 2.43.0 (0)
 -->
<!-- Title: %3 Pages: 1 -->
<svg width="495pt" height="260pt"
 viewBox="0.00 0.00 494.94 260.00" xmlns="http://www.w3.org/2000/svg" xmlns:xlink="http://www.w3.org/1999/xlink">
<g id="graph0" class="graph" transform="scale(1 1) rotate(0) translate(4 256)">
<title>%3</title>
<polygon fill="white" stroke="transparent" points="-4,4 -4,-256 490.94,-256 490.94,4 -4,4"/>
<!-- dependencies -->
<g id="node1" class="node">
<title>dependencies</title>
<ellipse fill="none" stroke="black" cx="74.09" cy="-90" rx="74.19" ry="18"/>
<text text-anchor="middle" x="74.09" y="-86.3" font-family="Times,serif" font-size="14.00">dependencies</text>
</g>
<!-- main -->
<g id="node2" class="node">
<title>main</title>
<ellipse fill="none" stroke="black" cx="371.09" cy="-18" rx="33.6" ry="18"/>
<text text-anchor="middle" x="371.09" y="-14.3" font-family="Times,serif" font-size="14.00">main</text>
</g>
<!-- dependencies&#45;&gt;main -->
<g id="edge1" class="edge">
<title>dependencies&#45;&gt;main</title>
<path fill="none" stroke="black" d="M125.49,-76.89C183.82,-63.14 277.76,-41 330.96,-28.46"/>
<polygon fill="black" stroke="black" points="331.79,-31.86 340.72,-26.16 330.18,-25.05 331.79,-31.86"/>
</g>
<!-- recommended -->
<g id="node3" class="node">
<title>recommended</title>
<ellipse fill="none" stroke="black" cx="243.09" cy="-90" rx="76.89" ry="18"/>
<text text-anchor="middle" x="243.09" y="-86.3" font-family="Times,serif" font-size="14.00">recommended</text>
</g>
<!-- tests -->
<g id="node4" class="node">
<title>tests</title>
<ellipse fill="none" stroke="black" cx="371.09" cy="-90" rx="33.6" ry="18"/>
<text text-anchor="middle" x="371.09" y="-86.3" font-family="Times,serif" font-size="14.00">tests</text>
</g>
<!-- tests&#45;&gt;main -->
<g id="edge2" class="edge">
<title>tests&#45;&gt;main</title>
<path fill="none" stroke="black" d="M371.09,-71.7C371.09,-63.98 371.09,-54.71 371.09,-46.11"/>
<polygon fill="black" stroke="black" points="374.59,-46.1 371.09,-36.1 367.59,-46.1 374.59,-46.1"/>
</g>
<!-- dev -->
<g id="node5" class="node">
<title>dev</title>
<ellipse fill="none" stroke="black" cx="371.09" cy="-162" rx="27.1" ry="18"/>
<text text-anchor="middle" x="371.09" y="-158.3" font-family="Times,serif" font-size="14.00">dev</text>
</g>
<!-- dev&#45;&gt;recommended -->
<g id="edge3" class="edge">
<title>dev&#45;&gt;recommended</title>
<path fill="none" stroke="black" d="M350.81,-149.91C332.02,-139.63 303.59,-124.08 280.65,-111.54"/>
<polygon fill="black" stroke="black" points="282.3,-108.45 271.85,-106.73 278.94,-114.59 282.3,-108.45"/>
</g>
<!-- dev&#45;&gt;tests -->
<g id="edge5" class="edge">
<title>dev&#45;&gt;tests</title>
<path fill="none" stroke="black" d="M371.09,-143.7C371.09,-135.98 371.09,-126.71 371.09,-118.11"/>
<polygon fill="black" stroke="black" points="374.59,-118.1 371.09,-108.1 367.59,-118.1 374.59,-118.1"/>
</g>
<!-- docs -->
<g id="node6" class="node">
<title>docs</title>
<ellipse fill="none" stroke="black" cx="455.09" cy="-90" rx="31.7" ry="18"/>
<text text-anchor="middle" x="455.09" y="-86.3" font-family="Times,serif" font-size="14.00">docs</text>
</g>
<!-- dev&#45;&gt;docs -->
<g id="edge4" class="edge">
<title>dev&#45;&gt;docs</title>
<path fill="none" stroke="black" d="M387.29,-147.5C399.4,-137.41 416.2,-123.41 430.04,-111.88"/>
<polygon fill="black" stroke="black" points="432.35,-114.51 437.79,-105.42 427.87,-109.13 432.35,-114.51"/>
</g>
<!-- docs&#45;&gt;main -->
<g id="edge6" class="edge">
<title>docs&#45;&gt;main</title>
<path fill="none" stroke="black" d="M437.69,-74.5C425.75,-64.55 409.72,-51.19 396.38,-40.07"/>
<polygon fill="black" stroke="black" points="398.4,-37.2 388.48,-33.49 393.92,-42.58 398.4,-37.2"/>
</g>
<!-- optional -->
<g id="node7" class="node">
<title>optional</title>
<ellipse fill="none" stroke="black" cx="371.09" cy="-234" rx="48.19" ry="18"/>
<text text-anchor="middle" x="371.09" y="-230.3" font-family="Times,serif" font-size="14.00">optional</text>
</g>
<!-- optional&#45;&gt;dev -->
<g id="edge7" class="edge">
<title>optional&#45;&gt;dev</title>
<path fill="none" stroke="black" d="M371.09,-215.7C371.09,-207.98 371.09,-198.71 371.09,-190.11"/>
<polygon fill="black" stroke="black" points="374.59,-190.1 371.09,-180.1 367.59,-190.1 374.59,-190.1"/>
</g>
</g>
</svg>
