<?xml version="1.0" encoding="UTF-8" standalone="no"?>
<!-- Created with Inkscape (http://www.inkscape.org/) -->

<svg
   width="120.47239mm"
   height="20.097652mm"
   viewBox="0 0 426.87068 71.21215"
   id="svg2"
   version="1.1"
   inkscape:version="1.3.2 (1:1.3.2+202311252150+091e20ef0f)"
   sodipodi:docname="eradiate-logo-typo_simple-black.svg"
   inkscape:export-filename="eradiate_typo_dark.png"
   inkscape:export-xdpi="161.77016"
   inkscape:export-ydpi="161.77016"
   xmlns:inkscape="http://www.inkscape.org/namespaces/inkscape"
   xmlns:sodipodi="http://sodipodi.sourceforge.net/DTD/sodipodi-0.dtd"
   xmlns:xlink="http://www.w3.org/1999/xlink"
   xmlns="http://www.w3.org/2000/svg"
   xmlns:svg="http://www.w3.org/2000/svg"
   xmlns:rdf="http://www.w3.org/1999/02/22-rdf-syntax-ns#"
   xmlns:cc="http://creativecommons.org/ns#"
   xmlns:dc="http://purl.org/dc/elements/1.1/">
  <defs
     id="defs4">
    <linearGradient
       gradientTransform="matrix(5.8761422,0,0,5.8761422,-351.44008,-499.66942)"
       inkscape:collect="always"
       xlink:href="#linearGradient5415"
       id="linearGradient5417"
       x1="71.697144"
       y1="117.92717"
       x2="93.84127"
       y2="117.92717"
       gradientUnits="userSpaceOnUse" />
    <linearGradient
       inkscape:collect="always"
       id="linearGradient5415">
      <stop
         style="stop-color:#76de65;stop-opacity:1;"
         offset="0"
         id="stop5411" />
      <stop
         style="stop-color:#647de7;stop-opacity:1"
         offset="1"
         id="stop5413" />
    </linearGradient>
    <linearGradient
       gradientTransform="matrix(5.8761422,0,0,5.8761422,-351.44008,-499.66942)"
       inkscape:collect="always"
       xlink:href="#linearGradient5396"
       id="linearGradient5385"
       x1="71.697067"
       y1="109.63422"
       x2="89.45018"
       y2="109.63422"
       gradientUnits="userSpaceOnUse" />
    <linearGradient
       id="linearGradient5396"
       inkscape:collect="always">
      <stop
         id="stop5392"
         offset="0"
         style="stop-color:#ffef0a;stop-opacity:1" />
      <stop
         id="stop5394"
         offset="1"
         style="stop-color:#ff2978;stop-opacity:1" />
    </linearGradient>
    <linearGradient
       gradientTransform="matrix(5.8761422,0,0,5.8761422,-351.44008,-499.66942)"
       inkscape:collect="always"
       xlink:href="#linearGradient5370-9"
       id="linearGradient5372"
       x1="71.696472"
       y1="100.72492"
       x2="93.838829"
       y2="100.72492"
       gradientUnits="userSpaceOnUse" />
    <linearGradient
       inkscape:collect="always"
       id="linearGradient5370-9">
      <stop
         style="stop-color:#2b74ff;stop-opacity:1"
         offset="0"
         id="stop5366" />
      <stop
         style="stop-color:#e573fd;stop-opacity:1"
         offset="1"
         id="stop5368" />
    </linearGradient>
  </defs>
  <sodipodi:namedview
     id="base"
     pagecolor="#ffffff"
     bordercolor="#666666"
     borderopacity="1.0"
     inkscape:pageopacity="0"
     inkscape:pageshadow="2"
     inkscape:zoom="1.4491112"
     inkscape:cx="170.44931"
     inkscape:cy="77.978833"
     inkscape:document-units="px"
     inkscape:current-layer="layer1"
     showgrid="false"
     fit-margin-top="2"
     fit-margin-left="2"
     fit-margin-right="2"
     fit-margin-bottom="2"
     inkscape:window-width="2560"
     inkscape:window-height="1376"
     inkscape:window-x="0"
     inkscape:window-y="27"
     inkscape:window-maximized="1"
     inkscape:pagecheckerboard="0"
     inkscape:showpageshadow="0"
     inkscape:deskcolor="#d1d1d1" />
  <metadata
     id="metadata7">
    <rdf:RDF>
      <cc:Work
         rdf:about="">
        <dc:format>image/svg+xml</dc:format>
        <dc:type
           rdf:resource="http://purl.org/dc/dcmitype/StillImage" />
      </cc:Work>
    </rdf:RDF>
  </metadata>
  <g
     inkscape:label="Layer 1"
     inkscape:groupmode="layer"
     id="layer1"
     transform="translate(-152.87441,-477.8647)">
    <g
       id="g1737"
       transform="matrix(3.5433071,0,0,3.5433071,-14.715957,-124.27772)">
      <g
         id="g1766"
         style="stroke:#000000;stroke-width:2.04592;stroke-miterlimit:4;stroke-dasharray:none;stroke-opacity:1"
         transform="matrix(0.11913714,0,0,0.1403791,38.925872,159.86615)">
        <path
           sodipodi:nodetypes="cccccccccccccccsc"
           inkscape:connector-curvature="0"
           id="path5364"
           d="m 71.313742,205.30382 c 0.07341,-3.75333 0.02943,-6.76262 0.08052,-7.33177 0.793574,-8.82086 6.467982,-16.40556 15.108678,-20.19448 2.545782,-1.11635 5.032209,-1.78131 8.518051,-2.27802 0.549419,-0.0781 12.435909,-0.1076 52.112399,-0.12751 l 51.40008,-0.0294 -0.0589,1.062 c -0.25619,4.79116 -1.97299,9.20109 -5.13287,13.18439 -0.77705,0.97957 -2.90241,3.0834 -3.98984,3.94954 -4.66771,3.71773 -10.36968,5.88284 -16.73878,6.35629 -0.73105,0.0588 -13.83377,0.0835 -37.03744,0.0835 -37.953593,8.2e-4 -38.245695,0.003 -42.316455,0.38135 -6.592687,0.61124 -12.04545,2.14997 -15.921175,4.49202 -1.221881,0.73821 -2.074745,1.39387 -3.088681,2.37378 -1.340163,1.29558 -2.923198,3.98297 -2.923198,3.98297 0,0 -0.03527,-4.78778 -0.0111,-5.90465 z"
           style="fill:url(#linearGradient5417);fill-opacity:1;stroke:#000000;stroke-width:2.04592;stroke-linecap:butt;stroke-linejoin:miter;stroke-miterlimit:4;stroke-dasharray:none;stroke-opacity:1" />
        <path
           sodipodi:nodetypes="sscccccccsccccs"
           inkscape:connector-curvature="0"
           id="path5362"
           d="m 71.433558,156.29891 c 0.01756,-3.41598 -0.161009,-5.47003 -0.04113,-7.31262 0.347265,-5.33701 2.125811,-10.03723 5.076392,-13.99139 3.763375,-5.04332 9.051145,-8.03181 15.034994,-8.49683 1.276884,-0.0993 81.227256,-0.0175 81.227256,-0.0175 0,0 -0.0999,2.6639 -0.24268,3.7039 -0.59867,4.35247 -2.31966,8.5444 -4.93384,12.01766 -0.87278,1.15954 -2.59379,2.96493 -3.73705,3.92027 -2.6157,2.18569 -5.8806,3.78783 -9.17742,4.50377 -2.03666,0.44188 -0.53943,0.42249 -31.86649,0.42249 -18.09159,0 -29.392234,0.0295 -30.001119,0.0812 -0.53708,0.047 -1.561283,0.12229 -2.27565,0.17157 -4.554008,0.31673 -8.805756,1.41946 -11.972047,3.10765 -3.537858,1.88624 -7.050909,8.25682 -7.050909,8.25682 0,0 -0.05283,-4.29493 -0.04113,-6.36674 z"
           style="fill:url(#linearGradient5385);fill-opacity:1;stroke:#000000;stroke-width:2.04592;stroke-linecap:butt;stroke-linejoin:miter;stroke-miterlimit:4;stroke-dasharray:none;stroke-opacity:1" />
        <path
           sodipodi:nodetypes="ccscscccccccczccc"
           inkscape:connector-curvature="0"
           id="path4140"
           d="m 71.335004,103.36979 c 0.02943,-7.601378 0.01771,-7.40299 0.530626,-9.719897 0.971256,-4.384963 3.221359,-8.416173 6.528395,-11.696048 4.589032,-4.551493 10.788704,-7.285302 17.750405,-7.827271 0.706727,-0.05869 18.60111,-0.08464 51.72756,-0.08464 h 50.64702 l -0.0528,0.816891 c -0.12988,2.046366 -0.37196,3.534091 -0.84864,5.215792 -1.79822,6.346347 -6.6049,11.938495 -13.10615,15.247462 -3.31397,1.686636 -6.6609,2.67012 -10.89055,3.200272 -0.59808,0.07466 -10.1417,0.115164 -38.37815,0.162757 -20.6701,0.03525 -37.846001,0.08521 -38.168603,0.111689 -0.322588,0.02943 -1.208769,0.08807 -1.969201,0.136364 -5.449837,0.344356 -9.779606,0.672413 -14.129006,2.847889 -4.349417,2.17547 -9.668081,8.58629 -9.668081,8.58629 l 0.02357,-6.9968 z"
           style="fill:url(#linearGradient5372);fill-opacity:1;stroke:#000000;stroke-width:2.04592;stroke-linecap:butt;stroke-linejoin:miter;stroke-miterlimit:4;stroke-dasharray:none;stroke-opacity:1" />
      </g>
      <path
         id="path1098"
         style="font-weight:bold;font-size:27.7452px;line-height:1.25;font-family:'Franklin Gothic Demi';-inkscape-font-specification:'Franklin Gothic Demi Bold';fill:#000000;fill-opacity:1;stroke-width:1.73407"
         d="m 167.77011,173.46031 h -8.8194 v 3.79329 h 6.9363 v 3.48169 h -6.9363 v 4.03715 h 8.8194 v 3.65781 h -13.22232 v -18.49228 h 13.22232 z m -15.06478,-3.52234 v 3.65781 h -4.57904 v 14.83447 h -4.38937 v -14.83447 h -4.60614 v -3.65781 z m -18.08585,0 5.78476,18.49228 h -4.66032 l -1.12444,-3.80683 h -5.98798 l -1.16508,3.80683 h -3.79329 l 5.92024,-18.49228 z m -4.94482,11.27149 h 3.92876 l -1.96438,-6.48924 z m -7.85753,-11.27149 v 18.49228 h -4.32164 v -18.49228 z m -22.312671,0 h 5.649291 q 3.4546,0 5.14803,0.96187 1.69344,0.94832 3.03464,3.02108 1.34119,2.05922 1.34119,5.21577 0,3.96941 -2.34371,6.63826 -2.34371,2.6553 -6.46213,2.6553 h -6.367311 z m 4.253901,3.40041 v 11.61017 h 1.78827 q 2.3708,0 3.52234,-1.76117 1.15153,-1.77471 1.15153,-4.15907 0,-1.67988 -0.66383,-3.10236 -0.65027,-1.43603 -1.62569,-2.00503 -0.97542,-0.58254 -2.34371,-0.58254 z m -12.030144,-3.40041 5.784766,18.49228 h -4.660327 l -1.124439,-3.80683 h -5.987977 l -1.165082,3.80683 h -3.793289 l 5.92024,-18.49228 z m -4.944823,11.27149 h 3.928764 l -1.964382,-6.48924 z M 68.76527,181.10108 v 7.32917 h -4.362282 v -18.49228 h 8.128476 q 2.248879,0 3.603625,0.52835 1.368293,0.5148 2.262425,1.91019 0.894133,1.39539 0.894133,3.10237 0,3.33268 -3.210748,4.78225 l 3.41396,8.16912 h -4.782254 l -2.844967,-7.32917 z m 0,-7.87108 v 4.71452 h 2.655302 q 1.300556,0 1.883097,-0.17612 0.596089,-0.18966 1.056702,-0.81285 0.460614,-0.63673 0.460614,-1.44958 0,-0.7722 -0.460614,-1.38184 -0.460613,-0.60963 -1.002512,-0.74511 Q 72.815961,173.23 71.32574,173.23 Z" />
    </g>
  </g>
</svg>
