<?xml version="1.0" encoding="UTF-8" standalone="no"?>
<!-- Created with Inkscape (http://www.inkscape.org/) -->

<svg
   width="238.77299mm"
   height="33.041mm"
   viewBox="-4 -4 238.77329 33.041035"
   version="1.1"
   id="svg5"
   xml:space="preserve"
   inkscape:version="1.3.2 (1:1.3.2+202311252150+091e20ef0f)"
   sodipodi:docname="esa_copernicus-logos-light.svg"
   inkscape:export-filename="combined_dark_2.png"
   inkscape:export-xdpi="300"
   inkscape:export-ydpi="300"
   xmlns:inkscape="http://www.inkscape.org/namespaces/inkscape"
   xmlns:sodipodi="http://sodipodi.sourceforge.net/DTD/sodipodi-0.dtd"
   xmlns:xlink="http://www.w3.org/1999/xlink"
   xmlns="http://www.w3.org/2000/svg"
   xmlns:svg="http://www.w3.org/2000/svg"><sodipodi:namedview
     id="namedview7"
     pagecolor="#ffffff"
     bordercolor="#999999"
     borderopacity="1"
     inkscape:showpageshadow="0"
     inkscape:pageopacity="0"
     inkscape:pagecheckerboard="0"
     inkscape:deskcolor="#d1d1d1"
     inkscape:document-units="mm"
     showgrid="false"
     inkscape:zoom="1.6819304"
     inkscape:cx="439.37608"
     inkscape:cy="121.88376"
     inkscape:window-width="2560"
     inkscape:window-height="1376"
     inkscape:window-x="0"
     inkscape:window-y="27"
     inkscape:window-maximized="1"
     inkscape:current-layer="svg5"
     inkscape:pageshadow="2"
     units="in"
     fit-margin-top="5"
     fit-margin-left="2.5"
     fit-margin-right="2.5"
     fit-margin-bottom="5"><inkscape:grid
       type="xygrid"
       id="grid507"
       originx="-46.618786"
       originy="-55.087784"
       spacingy="1"
       spacingx="1"
       units="in"
       visible="false" /></sodipodi:namedview><defs
     id="defs2"><path
       id="SVGID_1_"
       d="m 249,76.8 c 0,40.9 32.8,74 73.3,74 11.2,0 22.3,-2.6 32.4,-7.7 0,0 0.2,-0.1 0.1,-0.3 0,-0.1 -0.1,-0.1 -0.2,-0.1 0,0 0,0 0,0 -7.7,3.1 -15.9,4.7 -24.2,4.6 -36.8,0 -66.7,-30.3 -66.7,-67.6 0,-37.3 29.9,-67.6 66.7,-67.6 25.4,0 48.6,14.5 59.7,37.3 0,0 0.1,0.2 0.3,0.1 0.1,0 0.1,-0.1 0.1,-0.2 0,0 0,0 0,0 C 379.5,21.2 352.5,2.8 322.4,2.7 281.8,2.8 249,36 249,76.8" /><path
       id="SVGID_3_"
       d="m 331.6,117.7 c -2.1,-0.9 -4.1,-2.2 -5.7,-3.9 -1.7,-1.7 -3,-3.7 -3.9,-5.8 -0.9,-2.2 -1.4,-4.6 -1.4,-7.1 0,-2.4 0.5,-4.9 1.4,-7.1 0.9,-2.2 2.2,-4.2 3.9,-5.8 5.1,-5.2 12.8,-6.8 19.5,-3.9 2.1,0.9 4.1,2.2 5.7,3.9 5.1,5.4 6.5,13.2 3.8,20 -0.9,2.2 -2.2,4.1 -3.8,5.8 -1.6,1.6 -3.6,3 -5.7,3.9 -2.2,1 -4.5,1.5 -6.9,1.4 -2.4,0 -4.7,-0.5 -6.9,-1.4 m -2.4,-39.4 c -2.8,1.2 -5.4,3 -7.6,5.2 -6.9,7.1 -9,17.7 -5.2,26.9 1.2,2.9 3,5.5 5.2,7.8 2.2,2.2 4.7,4 7.6,5.2 5.9,2.5 12.6,2.5 18.6,0 2.8,-1.2 5.4,-3 7.6,-5.2 2.2,-2.2 4,-4.9 5.2,-7.8 2.5,-6.1 2.5,-12.9 0,-19 -1.2,-2.9 -3,-5.6 -5.2,-7.8 -2.2,-2.2 -4.7,-4 -7.6,-5.2 -6,-2.6 -12.7,-2.6 -18.6,-0.1" /><path
       id="SVGID_5_"
       d="m 383.7,117.8 c -6.7,-2.9 -11,-9.5 -10.9,-16.8 0,-2.4 0.5,-4.9 1.4,-7.1 1.8,-4.3 5.3,-7.8 9.6,-9.7 2.2,-1 4.5,-1.5 6.9,-1.4 2.4,0 4.7,0.5 6.9,1.4 2.1,0.9 4.1,2.3 5.7,3.9 1.6,1.7 2.9,3.6 3.8,5.8 0.9,2.3 1.4,4.7 1.4,7.1 0,2.4 -0.4,4.8 -1.4,7.1 -0.9,2.2 -2.2,4.1 -3.8,5.8 -1.6,1.6 -3.6,3 -5.7,3.9 -2.2,0.9 -4.5,1.4 -6.9,1.4 -2.5,0 -4.8,-0.5 -7,-1.4 m -2.4,-39.4 c -2.8,1.2 -5.4,3 -7.6,5.2 -2.2,2.3 -3.9,4.9 -5.2,7.8 -1.2,3 -1.8,6.3 -1.8,9.6 v 40.1 h 6.1 V 116 c 1.9,2.9 4.5,5.3 7.7,6.8 3.1,1.7 6.6,2.7 10.2,2.7 3.2,0 6.3,-0.7 9.3,-2 2.8,-1.2 5.4,-3 7.6,-5.2 2.2,-2.2 4,-4.9 5.2,-7.8 2.5,-6.1 2.5,-12.9 0,-19 -1.2,-2.9 -3,-5.6 -5.2,-7.8 -2.2,-2.2 -4.7,-4 -7.6,-5.2 -6.1,-2.7 -12.8,-2.7 -18.7,-0.1" /><path
       id="SVGID_7_"
       d="m 429.4,87.9 c 6.8,-7 18,-7 25,-0.2 0.1,0.1 0.1,0.1 0.2,0.2 1.3,1.4 2.5,3.1 3.3,4.9 H 426 c 0.9,-1.8 2.1,-3.4 3.4,-4.9 m 3.4,-9.6 c -2.9,1.2 -5.5,3 -7.7,5.2 -2.2,2.3 -3.9,4.9 -5.1,7.8 -2.5,6.1 -2.5,12.9 0,19 1.2,2.9 2.9,5.5 5.1,7.8 2.2,2.2 4.8,4 7.7,5.2 5.9,2.5 12.6,2.5 18.6,0 2.8,-1.3 5.4,-3 7.6,-5.2 2.2,-2.3 3.9,-4.9 5.1,-7.8 l 0.2,-0.7 h -6.7 c -0.8,1.5 -1.8,2.9 -3,4.1 -6.8,7 -18,7 -25,0.2 -0.1,-0.1 -0.1,-0.1 -0.2,-0.2 -1.6,-1.7 -2.9,-3.7 -3.8,-5.8 -1.3,-2.8 -1.7,-5.9 -1.3,-9 h 41.5 c -0.1,-2.6 -0.8,-5.2 -1.8,-7.7 -1.2,-2.9 -2.9,-5.6 -5.1,-7.8 -2.2,-2.2 -4.8,-4 -7.6,-5.2 -5.9,-2.4 -12.6,-2.4 -18.5,0.1" /><path
       id="SVGID_9_"
       d="m 485,80.4 c -2.9,1.3 -5.5,3.1 -7.7,5.3 -0.4,0.4 -0.7,0.9 -0.9,1.4 v -8.5 h -6 v 44.5 h 6 V 103 c 0,-2.4 0.5,-4.9 1.4,-7.1 0.9,-2.2 2.2,-4.1 3.9,-5.8 1.6,-1.7 3.5,-3 5.7,-3.9 2.2,-1 4.5,-1.5 6.9,-1.4 v -6.2 c -3.3,-0.1 -6.5,0.5 -9.3,1.8" /><path
       id="SVGID_11_"
       d="m 513.6,76.9 c -1.3,0.3 -2.6,0.7 -3.8,1.3 -1.2,0.5 -2.3,1.2 -3.3,2 -0.9,0.7 -1.7,1.6 -2.4,2.6 V 78.7 H 498 v 44.5 h 6.1 V 96.5 c 0,-1.8 0.4,-3.5 1.1,-5.1 0.7,-1.6 1.7,-3.1 2.9,-4.4 1.2,-1.3 2.7,-2.3 4.2,-3 1.6,-0.8 3.4,-1.2 5.2,-1.2 1.7,0 3.5,0.4 5.1,1.1 5,2.2 8.2,7.2 8.2,12.7 v 26.7 h 6.3 l -0.2,-26.7 c 0,-2.7 -0.5,-5.3 -1.5,-7.8 -1,-2.4 -2.5,-4.5 -4.2,-6.4 -1.8,-1.8 -3.9,-3.3 -6.2,-4.3 -2.4,-1.1 -4.9,-1.6 -7.5,-1.6 -1.2,-0.1 -2.5,0 -3.9,0.4" /><path
       id="SVGID_13_"
       d="m 543.4,123.2 h 6.1 V 78.7 h -6.1 z M 544,62 c -1.5,1.4 -1.5,3.8 -0.1,5.3 0.7,0.7 1.7,1.1 2.7,1.1 1,0 1.9,-0.4 2.6,-1.1 1.4,-1.5 1.4,-3.8 0,-5.3 -0.7,-0.7 -1.6,-1.1 -2.6,-1.1 -1,0 -1.9,0.4 -2.6,1.1" /><path
       id="SVGID_15_"
       d="m 568.9,78.3 c -2.8,1.3 -5.4,3 -7.6,5.2 -6.9,7.1 -9,17.7 -5.2,26.9 1.2,2.9 3,5.5 5.2,7.8 2.2,2.2 4.8,4 7.6,5.2 12,5.1 25.9,-0.4 31,-12.4 0.1,-0.2 0.2,-0.4 0.3,-0.6 l 0.3,-0.7 h -6.7 c -0.8,1.5 -1.8,2.9 -3,4.1 -1.6,1.6 -3.6,3 -5.7,3.9 -2.2,1 -4.5,1.5 -6.9,1.4 -7.2,-0.1 -13.7,-4.5 -16.5,-11.1 -0.9,-2.2 -1.4,-4.6 -1.4,-7.1 0,-2.4 0.5,-4.9 1.4,-7.1 0.9,-2.2 2.2,-4.2 3.9,-5.8 5.1,-5.2 12.8,-6.8 19.5,-3.9 2.1,0.9 4.1,2.2 5.7,3.9 1.1,1.2 2.1,2.6 2.9,4 h 6.8 l -0.3,-0.6 c -4.8,-12.1 -18.5,-18.1 -30.6,-13.3 -0.2,0 -0.5,0.1 -0.7,0.2" /><path
       id="SVGID_17_"
       d="m 637.1,78.7 v 24.5 c 0,1.8 -0.4,3.6 -1.1,5.3 -0.7,1.6 -1.6,3.1 -2.9,4.3 -1.2,1.2 -2.7,2.2 -4.2,3 -3.3,1.4 -7.1,1.4 -10.4,0 -1.6,-0.7 -3,-1.7 -4.2,-3 -1.3,-1.2 -2.2,-2.7 -2.9,-4.3 -0.7,-1.7 -1.1,-3.5 -1.1,-5.3 v 0 -24.5 H 604 v 24.4 0 c 0,2.7 0.5,5.3 1.6,7.7 1,2.4 2.4,4.5 4.2,6.4 1.8,1.8 3.9,3.3 6.2,4.3 2.4,1.1 4.9,1.6 7.5,1.6 2.6,0 5.2,-0.5 7.6,-1.6 2.3,-1 4.4,-2.5 6.2,-4.3 1.8,-1.9 3.2,-4 4.2,-6.4 1,-2.5 1.5,-5.1 1.5,-7.7 V 78.7 Z" /><path
       id="SVGID_19_"
       d="m 657.7,77.6 c -1.8,0.7 -3.5,1.8 -4.9,3.1 -1.4,1.2 -2.4,2.7 -3.2,4.4 -0.8,1.7 -1,3.6 -0.8,5.4 0.2,2.3 1.1,4.4 2.5,6.2 1.3,1.6 3,2.9 4.9,3.7 2,0.9 4.1,1.6 6.3,2.1 1.9,0.5 3.8,1.2 5.6,2 1.4,0.6 2.5,1.5 3.4,2.7 0.8,1.1 1.1,2.7 1.1,4.7 -0.1,1.9 -1,3.7 -2.4,5.1 -1.4,1.4 -3.5,2 -6.4,2 -2.2,0.1 -4.3,-0.4 -6.2,-1.5 -1.4,-0.9 -2.5,-2.1 -3.3,-3.6 -0.6,-1.3 -0.9,-2.8 -0.9,-4.2 h -6.1 c -0.1,2.3 0.4,4.5 1.3,6.6 0.9,1.8 2.1,3.5 3.6,4.9 1.5,1.3 3.3,2.4 5.2,3.1 1.9,0.7 3.9,1 6,1.1 2,0 4,-0.3 5.9,-0.8 1.8,-0.6 3.4,-1.5 4.9,-2.6 1.4,-1.1 2.6,-2.6 3.4,-4.2 0.9,-1.7 1.3,-3.7 1.2,-5.6 0.1,-2.4 -0.4,-4.8 -1.5,-6.9 -1.1,-1.9 -2.6,-3.5 -4.4,-4.6 -1.9,-1.2 -3.9,-2.2 -6.1,-2.9 l -5.8,-2 c -1.5,-0.5 -2.9,-1.2 -4.2,-2.1 -1.1,-0.8 -1.8,-2 -2,-3.3 -0.3,-1.6 0.2,-3.3 1.2,-4.6 1,-1.3 2.2,-2.3 3.7,-2.9 1.2,-0.4 2.4,-0.7 3.7,-0.7 1.7,0 3.3,0.5 4.8,1.4 1.4,0.9 2.5,2.3 3,3.9 h 6.5 c -0.2,-1.1 -0.6,-2.2 -1.1,-3.2 -0.8,-1.3 -1.7,-2.6 -2.7,-3.7 -1.2,-1.3 -2.7,-2.3 -4.3,-3 -1.9,-0.8 -4,-1.2 -6.1,-1.1 -2,-0.1 -4,0.3 -5.8,1.1" /></defs><g
     inkscape:label="Layer 1"
     inkscape:groupmode="layer"
     id="layer1"
     transform="translate(-66.353235,-136.11071)" /><g
     id="g142"
     transform="matrix(0.01469906,0,0,-0.01469906,136.29809,50.040647)"><path
       d="m 5099.66,2631.72 c -73,13.5 -168.8,20.61 -199.95,64.84 -46.8,66.44 11.66,163.1 164.78,154.06 138.61,-8.17 157.51,-115.14 159.42,-156.74 h 199.95 c 2.73,78.34 -29.72,159.41 -78.39,210.75 -62.07,64.83 -208.02,132.45 -388.99,105.34 -97.33,-13.45 -227.01,-70.18 -270.29,-197.24 -37.84,-118.85 0,-226.91 72.95,-283.69 91.9,-70.28 264.35,-91.33 335.09,-105.45 85.53,-17.08 149.04,-28.51 138.48,-119.5 -11.09,-95.62 -159.31,-122.84 -257.38,-91.19 -69.91,22.57 -100,78.39 -113.5,154.01 h -210.7 c 0,-95.84 57.01,-196.96 114.74,-243.38 85.61,-68.84 182.9,-93.06 295.31,-93.06 147.64,0 269.81,38.05 343.8,147.31 38.78,57.29 81.06,189.13 13.45,307.99 -59.41,102.71 -194.52,124.34 -318.77,145.95"
       style="fill:#042a3d;fill-opacity:1;fill-rule:nonzero;stroke:none"
       id="path144" /><path
       d="m 4402.46,2883.01 c -85.83,98.09 -236.11,154.06 -389.05,129.74 -286.96,-45.63 -357.21,-317.54 -370.2,-405.37 -24.31,-164.42 24.34,-440.42 313.47,-548.54 135.02,-51.29 305.31,-32.4 434.99,62.16 72.95,54.12 145.91,175.64 151.3,251.36 h -240.48 c -8.06,-32.45 -27,-75.72 -70.23,-108.12 -97.33,-70.24 -208.07,-24.34 -256.74,10.83 -72.95,54.01 -99.95,143.15 -99.95,270.19 0,175.91 80.86,280.09 220.51,280.09 126.37,0 204.5,-108.73 198.35,-199.02 h -340.52 v -170.24 h 589.06 c 14.38,160.26 -60.09,335.01 -140.51,426.92"
       style="fill:#042a3d;fill-opacity:1;fill-rule:nonzero;stroke:none"
       id="path146" /><path
       d="m 6154.35,2327.13 c -19.62,-56.44 -72.59,-97.87 -172.9,-111.06 -132.35,-17.38 -222.76,64.78 -165.53,170.57 57.46,106.23 269.08,68.56 349.26,145.89 0,-21.6 3.49,-164.15 -10.83,-205.4 z m 243.24,-35.11 c 0,50.44 0,247.61 0,291.86 0,44.25 -5.35,150.74 -18.9,221.57 -9.75,51 -53.72,128.35 -137.91,170.32 -73.37,36.57 -129.81,43.15 -249.28,43.15 -179.57,0 -372.85,-62.45 -381.12,-321.53 h 216.12 c 0,93.75 64.95,149.11 164.39,149.11 97.3,0 179.82,-52.4 160.84,-138.34 -18.99,-85.94 -177.68,-89.14 -279.09,-102.67 -117.6,-15.69 -275.63,-70.23 -313.46,-235.08 -13.51,-64.85 -2.72,-183.74 97.24,-262.08 67.6,-51.34 139.42,-73 235.12,-73 122.09,0 224.72,53.16 281.8,105.4 2.67,-13.5 16.16,-64.83 27,-78.4 h 226.96 c -35.16,70.29 -29.71,179.24 -29.71,229.69"
       style="fill:#042a3d;fill-opacity:1;fill-rule:nonzero;stroke:none"
       id="path148" /><path
       d="m 2108.89,2444.22 c -53.58,0 -97,43.43 -97,96.99 0,53.57 43.42,97 97,97 53.57,0 96.99,-43.43 96.99,-97 0,-53.56 -43.42,-96.99 -96.99,-96.99 z m 752.51,-435.11 c -382.95,132.21 -453.8,486.46 -358.35,734.47 95.3,248 429.12,363.76 660.76,197.59 231.74,-166.24 207.14,-485.08 207.14,-485.08 h -594.04 v 170.24 h 344.76 c 0,0 9.61,66.38 -47.75,129.5 -76.5,84.19 -186.19,83.22 -257.51,42.21 -88.88,-51.11 -149.86,-233.44 -102.24,-393.75 47.62,-160.32 193.19,-224.02 333.25,-224.02 202.87,0 353.85,140.24 354.16,369.83 0.78,380.46 -255.78,727.34 -641.34,825.18 -455.12,115.43 -917.64,-159.92 -1033.15,-615.04 -115.43,-455.11 159.88,-917.69 615.01,-1033.15 324.88,-82.4 653.51,34.28 857.02,273.34 -96.35,-28.46 -210.82,-35.11 -337.72,8.68"
       style="fill:#042a3d;fill-opacity:1;fill-rule:nonzero;stroke:none"
       id="path150" /></g><style
     type="text/css"
     id="style319">
	.st0{fill:#FFFFFF;}
	.st1{fill:#243F9C;}
	.st2{fill:#FCEC00;}
	.st3{clip-path:url(#SVGID_2_);}
	.st4{fill:url(#Rectangle_74_1_);}
	.st5{fill:#FFCB2B;}
	.st6{clip-path:url(#SVGID_4_);}
	.st7{fill:url(#Rectangle_75_1_);}
	.st8{clip-path:url(#SVGID_6_);}
	.st9{fill:url(#Rectangle_76_1_);}
	.st10{clip-path:url(#SVGID_8_);}
	.st11{fill:url(#Rectangle_77_1_);}
	.st12{clip-path:url(#SVGID_10_);}
	.st13{fill:url(#Rectangle_78_1_);}
	.st14{clip-path:url(#SVGID_12_);}
	.st15{fill:url(#Rectangle_79_1_);}
	.st16{clip-path:url(#SVGID_14_);}
	.st17{fill:url(#Rectangle_80_1_);}
	.st18{clip-path:url(#SVGID_16_);}
	.st19{fill:url(#Rectangle_81_1_);}
	.st20{clip-path:url(#SVGID_18_);}
	.st21{fill:url(#Rectangle_82_1_);}
	.st22{clip-path:url(#SVGID_20_);}
	.st23{fill:url(#Rectangle_83_1_);}
	.st24{fill:#28639A;}
</style><g
     id="g654"
     transform="matrix(0.15943897,0,0,0.15943897,-39.700304,-0.44642911)"><g
       id="Layer_2">
</g><g
       id="Layer_3">
	<g
   id="g341">
		<defs
   id="defs329">
			<path
   id="path523"
   d="m 249,76.8 c 0,40.9 32.8,74 73.3,74 11.2,0 22.3,-2.6 32.4,-7.7 0,0 0.2,-0.1 0.1,-0.3 0,-0.1 -0.1,-0.1 -0.2,-0.1 0,0 0,0 0,0 -7.7,3.1 -15.9,4.7 -24.2,4.6 -36.8,0 -66.7,-30.3 -66.7,-67.6 0,-37.3 29.9,-67.6 66.7,-67.6 25.4,0 48.6,14.5 59.7,37.3 0,0 0.1,0.2 0.3,0.1 0.1,0 0.1,-0.1 0.1,-0.2 0,0 0,0 0,0 C 379.5,21.2 352.5,2.8 322.4,2.7 281.8,2.8 249,36 249,76.8" />
		</defs>
		<clipPath
   id="SVGID_2_">
			<use
   xlink:href="#SVGID_1_"
   style="overflow:visible"
   id="use331"
   x="0"
   y="0"
   width="100%"
   height="100%" />
		</clipPath>
		<g
   id="Group_438"
   class="st3"
   clip-path="url(#SVGID_2_)">

				<linearGradient
   id="Rectangle_74_1_"
   gradientUnits="userSpaceOnUse"
   x1="-169.7381"
   y1="463.05319"
   x2="-169.7343"
   y2="463.05319"
   gradientTransform="matrix(186.5,0,0,-195.09,31906,90413.852)">
				<stop
   offset="0"
   style="stop-color:#236797"
   id="stop334" />
				<stop
   offset="1"
   style="stop-color:#6AAADC"
   id="stop336" />
			</linearGradient>
			<rect
   id="Rectangle_74"
   x="249"
   y="2.8"
   class="st4"
   width="141.5"
   height="148"
   style="fill:url(#Rectangle_74_1_)" />
		</g>
	</g>
	<path
   id="Path_353"
   class="st5"
   d="m 529.9,91.2 c -1.3,-3.3 -3.9,-5.9 -7.1,-7.4 -1.6,-0.7 -3.3,-1.1 -5.1,-1.1 -1.8,0 -3.6,0.4 -5.2,1.2 -1.6,0.7 -3,1.8 -4.2,3 -0.6,0.7 -1.2,1.4 -1.7,2.1 v 0.3 c 0,9.1 7.4,16.5 16.5,16.5 0,0 0,0 0,0 2.7,0 5.4,-0.7 7.8,-2 v -7.5 c 0,-1.6 -0.3,-3.4 -1,-5.1" />
	<g
   id="g357">
		<defs
   id="defs345">
			<path
   id="path535"
   d="m 331.6,117.7 c -2.1,-0.9 -4.1,-2.2 -5.7,-3.9 -1.7,-1.7 -3,-3.7 -3.9,-5.8 -0.9,-2.2 -1.4,-4.6 -1.4,-7.1 0,-2.4 0.5,-4.9 1.4,-7.1 0.9,-2.2 2.2,-4.2 3.9,-5.8 5.1,-5.2 12.8,-6.8 19.5,-3.9 2.1,0.9 4.1,2.2 5.7,3.9 5.1,5.4 6.5,13.2 3.8,20 -0.9,2.2 -2.2,4.1 -3.8,5.8 -1.6,1.6 -3.6,3 -5.7,3.9 -2.2,1 -4.5,1.5 -6.9,1.4 -2.4,0 -4.7,-0.5 -6.9,-1.4 m -2.4,-39.4 c -2.8,1.2 -5.4,3 -7.6,5.2 -6.9,7.1 -9,17.7 -5.2,26.9 1.2,2.9 3,5.5 5.2,7.8 2.2,2.2 4.7,4 7.6,5.2 5.9,2.5 12.6,2.5 18.6,0 2.8,-1.2 5.4,-3 7.6,-5.2 2.2,-2.2 4,-4.9 5.2,-7.8 2.5,-6.1 2.5,-12.9 0,-19 -1.2,-2.9 -3,-5.6 -5.2,-7.8 -2.2,-2.2 -4.7,-4 -7.6,-5.2 -6,-2.6 -12.7,-2.6 -18.6,-0.1" />
		</defs>
		<clipPath
   id="SVGID_4_">
			<use
   xlink:href="#SVGID_3_"
   style="overflow:visible"
   id="use347"
   x="0"
   y="0"
   width="100%"
   height="100%" />
		</clipPath>
		<g
   id="Group_439"
   class="st6"
   clip-path="url(#SVGID_4_)">

				<linearGradient
   id="Rectangle_75_1_"
   gradientUnits="userSpaceOnUse"
   x1="-166.65331"
   y1="460.24661"
   x2="-166.6412"
   y2="460.24661"
   gradientTransform="matrix(63,0,0,-64.56,10750.5,29814.398)">
				<stop
   offset="0"
   style="stop-color:#0E294D"
   id="stop350" />
				<stop
   offset="1"
   style="stop-color:#204F9C"
   id="stop352" />
			</linearGradient>
			<rect
   id="Rectangle_75"
   x="314.60001"
   y="76.400002"
   class="st7"
   width="47.799999"
   height="49"
   style="fill:url(#Rectangle_75_1_)" />
		</g>
	</g>
	<g
   id="g372">
		<defs
   id="defs360">
			<path
   id="path546"
   d="m 383.7,117.8 c -6.7,-2.9 -11,-9.5 -10.9,-16.8 0,-2.4 0.5,-4.9 1.4,-7.1 1.8,-4.3 5.3,-7.8 9.6,-9.7 2.2,-1 4.5,-1.5 6.9,-1.4 2.4,0 4.7,0.5 6.9,1.4 2.1,0.9 4.1,2.3 5.7,3.9 1.6,1.7 2.9,3.6 3.8,5.8 0.9,2.3 1.4,4.7 1.4,7.1 0,2.4 -0.4,4.8 -1.4,7.1 -0.9,2.2 -2.2,4.1 -3.8,5.8 -1.6,1.6 -3.6,3 -5.7,3.9 -2.2,0.9 -4.5,1.4 -6.9,1.4 -2.5,0 -4.8,-0.5 -7,-1.4 m -2.4,-39.4 c -2.8,1.2 -5.4,3 -7.6,5.2 -2.2,2.3 -3.9,4.9 -5.2,7.8 -1.2,3 -1.8,6.3 -1.8,9.6 v 40.1 h 6.1 V 116 c 1.9,2.9 4.5,5.3 7.7,6.8 3.1,1.7 6.6,2.7 10.2,2.7 3.2,0 6.3,-0.7 9.3,-2 2.8,-1.2 5.4,-3 7.6,-5.2 2.2,-2.2 4,-4.9 5.2,-7.8 2.5,-6.1 2.5,-12.9 0,-19 -1.2,-2.9 -3,-5.6 -5.2,-7.8 -2.2,-2.2 -4.7,-4 -7.6,-5.2 -6.1,-2.7 -12.8,-2.7 -18.7,-0.1" />
		</defs>
		<clipPath
   id="SVGID_6_">
			<use
   xlink:href="#SVGID_5_"
   style="overflow:visible"
   id="use362"
   x="0"
   y="0"
   width="100%"
   height="100%" />
		</clipPath>
		<g
   id="Group_440"
   class="st8"
   clip-path="url(#SVGID_6_)">

				<linearGradient
   id="Rectangle_76_1_"
   gradientUnits="userSpaceOnUse"
   x1="-167.7525"
   y1="461.30841"
   x2="-167.7404"
   y2="461.30841"
   gradientTransform="matrix(63,0,0,-85.25,10819.2,39435.352)">
				<stop
   offset="0"
   style="stop-color:#0E294D"
   id="stop365" />
				<stop
   offset="1"
   style="stop-color:#204F9C"
   id="stop367" />
			</linearGradient>
			<rect
   id="Rectangle_76"
   x="366.70001"
   y="76.5"
   class="st9"
   width="47.799999"
   height="64.699997"
   style="fill:url(#Rectangle_76_1_)" />
		</g>
	</g>
	<g
   id="g387">
		<defs
   id="defs375">
			<path
   id="path557"
   d="m 429.4,87.9 c 6.8,-7 18,-7 25,-0.2 0.1,0.1 0.1,0.1 0.2,0.2 1.3,1.4 2.5,3.1 3.3,4.9 H 426 c 0.9,-1.8 2.1,-3.4 3.4,-4.9 m 3.4,-9.6 c -2.9,1.2 -5.5,3 -7.7,5.2 -2.2,2.3 -3.9,4.9 -5.1,7.8 -2.5,6.1 -2.5,12.9 0,19 1.2,2.9 2.9,5.5 5.1,7.8 2.2,2.2 4.8,4 7.7,5.2 5.9,2.5 12.6,2.5 18.6,0 2.8,-1.3 5.4,-3 7.6,-5.2 2.2,-2.3 3.9,-4.9 5.1,-7.8 l 0.2,-0.7 h -6.7 c -0.8,1.5 -1.8,2.9 -3,4.1 -6.8,7 -18,7 -25,0.2 -0.1,-0.1 -0.1,-0.1 -0.2,-0.2 -1.6,-1.7 -2.9,-3.7 -3.8,-5.8 -1.3,-2.8 -1.7,-5.9 -1.3,-9 h 41.5 c -0.1,-2.6 -0.8,-5.2 -1.8,-7.7 -1.2,-2.9 -2.9,-5.6 -5.1,-7.8 -2.2,-2.2 -4.8,-4 -7.6,-5.2 -5.9,-2.4 -12.6,-2.4 -18.5,0.1" />
		</defs>
		<clipPath
   id="SVGID_8_">
			<use
   xlink:href="#SVGID_7_"
   style="overflow:visible"
   id="use377"
   x="0"
   y="0"
   width="100%"
   height="100%" />
		</clipPath>
		<g
   id="Group_441"
   class="st10"
   clip-path="url(#SVGID_8_)">

				<linearGradient
   id="Rectangle_77_1_"
   gradientUnits="userSpaceOnUse"
   x1="-168.8147"
   y1="460.24661"
   x2="-168.8026"
   y2="460.24661"
   gradientTransform="matrix(62.9,0,0,-64.56,10869.8,29814.398)">
				<stop
   offset="0"
   style="stop-color:#0E294D"
   id="stop380" />
				<stop
   offset="1"
   style="stop-color:#204F9C"
   id="stop382" />
			</linearGradient>
			<rect
   id="Rectangle_77"
   x="418.10001"
   y="76.400002"
   class="st11"
   width="47.700001"
   height="49"
   style="fill:url(#Rectangle_77_1_)" />
		</g>
	</g>
	<g
   id="g402">
		<defs
   id="defs390">
			<path
   id="path568"
   d="m 485,80.4 c -2.9,1.3 -5.5,3.1 -7.7,5.3 -0.4,0.4 -0.7,0.9 -0.9,1.4 v -8.5 h -6 v 44.5 h 6 V 103 c 0,-2.4 0.5,-4.9 1.4,-7.1 0.9,-2.2 2.2,-4.1 3.9,-5.8 1.6,-1.7 3.5,-3 5.7,-3.9 2.2,-1 4.5,-1.5 6.9,-1.4 v -6.2 c -3.3,-0.1 -6.5,0.5 -9.3,1.8" />
		</defs>
		<clipPath
   id="SVGID_10_">
			<use
   xlink:href="#SVGID_9_"
   style="overflow:visible"
   id="use392"
   x="0"
   y="0"
   width="100%"
   height="100%" />
		</clipPath>
		<g
   id="Group_442"
   class="st12"
   clip-path="url(#SVGID_10_)">

				<linearGradient
   id="Rectangle_78_1_"
   gradientUnits="userSpaceOnUse"
   x1="-167.8199"
   y1="459.84009"
   x2="-167.7957"
   y2="459.84009"
   gradientTransform="matrix(31.5,0,0,-58.93,5537.8999,27199.25)">
				<stop
   offset="0"
   style="stop-color:#0E294D"
   id="stop395" />
				<stop
   offset="1"
   style="stop-color:#204F9C"
   id="stop397" />
			</linearGradient>
			<rect
   id="Rectangle_78"
   x="470.39999"
   y="78.5"
   class="st13"
   width="23.9"
   height="44.700001"
   style="fill:url(#Rectangle_78_1_)" />
		</g>
	</g>
	<g
   id="g417">
		<defs
   id="defs405">
			<path
   id="path579"
   d="m 513.6,76.9 c -1.3,0.3 -2.6,0.7 -3.8,1.3 -1.2,0.5 -2.3,1.2 -3.3,2 -0.9,0.7 -1.7,1.6 -2.4,2.6 V 78.7 H 498 v 44.5 h 6.1 V 96.5 c 0,-1.8 0.4,-3.5 1.1,-5.1 0.7,-1.6 1.7,-3.1 2.9,-4.4 1.2,-1.3 2.7,-2.3 4.2,-3 1.6,-0.8 3.4,-1.2 5.2,-1.2 1.7,0 3.5,0.4 5.1,1.1 5,2.2 8.2,7.2 8.2,12.7 v 26.7 h 6.3 l -0.2,-26.7 c 0,-2.7 -0.5,-5.3 -1.5,-7.8 -1,-2.4 -2.5,-4.5 -4.2,-6.4 -1.8,-1.8 -3.9,-3.3 -6.2,-4.3 -2.4,-1.1 -4.9,-1.6 -7.5,-1.6 -1.2,-0.1 -2.5,0 -3.9,0.4" />
		</defs>
		<clipPath
   id="SVGID_12_">
			<use
   xlink:href="#SVGID_11_"
   style="overflow:visible"
   id="use407"
   x="0"
   y="0"
   width="100%"
   height="100%" />
		</clipPath>
		<g
   id="Group_443"
   class="st14"
   clip-path="url(#SVGID_12_)">

				<linearGradient
   id="Rectangle_79_1_"
   gradientUnits="userSpaceOnUse"
   x1="-170.1564"
   y1="460.04681"
   x2="-170.1412"
   y2="460.04681"
   gradientTransform="matrix(51.5,0,0,-61.74,9014.5,28503.102)">
				<stop
   offset="0"
   style="stop-color:#0E294D"
   id="stop410" />
				<stop
   offset="1"
   style="stop-color:#204F9C"
   id="stop412" />
			</linearGradient>
			<rect
   id="Rectangle_79"
   x="498.20001"
   y="76.400002"
   class="st15"
   width="39.099998"
   height="46.799999"
   style="fill:url(#Rectangle_79_1_)" />
		</g>
	</g>
	<g
   id="g432">
		<defs
   id="defs420">
			<path
   id="path590"
   d="m 543.4,123.2 h 6.1 V 78.7 h -6.1 z M 544,62 c -1.5,1.4 -1.5,3.8 -0.1,5.3 0.7,0.7 1.7,1.1 2.7,1.1 1,0 1.9,-0.4 2.6,-1.1 1.4,-1.5 1.4,-3.8 0,-5.3 -0.7,-0.7 -1.6,-1.1 -2.6,-1.1 -1,0 -1.9,0.4 -2.6,1.1" />
		</defs>
		<clipPath
   id="SVGID_14_">
			<use
   xlink:href="#SVGID_13_"
   style="overflow:visible"
   id="use422"
   x="0"
   y="0"
   width="100%"
   height="100%" />
		</clipPath>
		<g
   id="Group_444"
   class="st16"
   clip-path="url(#SVGID_14_)">

				<linearGradient
   id="Rectangle_80_1_"
   gradientUnits="userSpaceOnUse"
   x1="-168.31731"
   y1="461.12411"
   x2="-168.2384"
   y2="461.12411"
   gradientTransform="matrix(9.6,0,0,-82.17,1866.7001,37982.648)">
				<stop
   offset="0"
   style="stop-color:#0E294D"
   id="stop425" />
				<stop
   offset="1"
   style="stop-color:#204F9C"
   id="stop427" />
			</linearGradient>
			<rect
   id="Rectangle_80"
   x="542.90002"
   y="60.900002"
   class="st17"
   width="7.3000002"
   height="62.299999"
   style="fill:url(#Rectangle_80_1_)" />
		</g>
	</g>
	<g
   id="g447">
		<defs
   id="defs435">
			<path
   id="path601"
   d="m 568.9,78.3 c -2.8,1.3 -5.4,3 -7.6,5.2 -6.9,7.1 -9,17.7 -5.2,26.9 1.2,2.9 3,5.5 5.2,7.8 2.2,2.2 4.8,4 7.6,5.2 12,5.1 25.9,-0.4 31,-12.4 0.1,-0.2 0.2,-0.4 0.3,-0.6 l 0.3,-0.7 h -6.7 c -0.8,1.5 -1.8,2.9 -3,4.1 -1.6,1.6 -3.6,3 -5.7,3.9 -2.2,1 -4.5,1.5 -6.9,1.4 -7.2,-0.1 -13.7,-4.5 -16.5,-11.1 -0.9,-2.2 -1.4,-4.6 -1.4,-7.1 0,-2.4 0.5,-4.9 1.4,-7.1 0.9,-2.2 2.2,-4.2 3.9,-5.8 5.1,-5.2 12.8,-6.8 19.5,-3.9 2.1,0.9 4.1,2.2 5.7,3.9 1.1,1.2 2.1,2.6 2.9,4 h 6.8 l -0.3,-0.6 c -4.8,-12.1 -18.5,-18.1 -30.6,-13.3 -0.2,0 -0.5,0.1 -0.7,0.2" />
		</defs>
		<clipPath
   id="SVGID_16_">
			<use
   xlink:href="#SVGID_15_"
   style="overflow:visible"
   id="use437"
   x="0"
   y="0"
   width="100%"
   height="100%" />
		</clipPath>
		<g
   id="Group_445"
   class="st18"
   clip-path="url(#SVGID_16_)">

				<linearGradient
   id="Rectangle_81_1_"
   gradientUnits="userSpaceOnUse"
   x1="-171.65891"
   y1="460.24661"
   x2="-171.646"
   y2="460.24661"
   gradientTransform="matrix(60.8,0,0,-64.56,10688.2,29814.398)">
				<stop
   offset="0"
   style="stop-color:#0E294D"
   id="stop440" />
				<stop
   offset="1"
   style="stop-color:#204F9C"
   id="stop442" />
			</linearGradient>
			<rect
   id="Rectangle_81"
   x="554.40002"
   y="76.400002"
   class="st19"
   width="46.099998"
   height="49"
   style="fill:url(#Rectangle_81_1_)" />
		</g>
	</g>
	<g
   id="g462">
		<defs
   id="defs450">
			<path
   id="path612"
   d="m 637.1,78.7 v 24.5 c 0,1.8 -0.4,3.6 -1.1,5.3 -0.7,1.6 -1.6,3.1 -2.9,4.3 -1.2,1.2 -2.7,2.2 -4.2,3 -3.3,1.4 -7.1,1.4 -10.4,0 -1.6,-0.7 -3,-1.7 -4.2,-3 -1.3,-1.2 -2.2,-2.7 -2.9,-4.3 -0.7,-1.7 -1.1,-3.5 -1.1,-5.3 v 0 -24.5 H 604 v 24.4 0 c 0,2.7 0.5,5.3 1.6,7.7 1,2.4 2.4,4.5 4.2,6.4 1.8,1.8 3.9,3.3 6.2,4.3 2.4,1.1 4.9,1.6 7.5,1.6 2.6,0 5.2,-0.5 7.6,-1.6 2.3,-1 4.4,-2.5 6.2,-4.3 1.8,-1.9 3.2,-4 4.2,-6.4 1,-2.5 1.5,-5.1 1.5,-7.7 V 78.7 Z" />
		</defs>
		<clipPath
   id="SVGID_18_">
			<use
   xlink:href="#SVGID_17_"
   style="overflow:visible"
   id="use452"
   x="0"
   y="0"
   width="100%"
   height="100%" />
		</clipPath>
		<g
   id="Group_446"
   class="st20"
   clip-path="url(#SVGID_18_)">

				<linearGradient
   id="Rectangle_82_1_"
   gradientUnits="userSpaceOnUse"
   x1="-172.8643"
   y1="459.82141"
   x2="-172.8499"
   y2="459.82141"
   gradientTransform="matrix(51.5,0,0,-58.69,9154.0996,27087.85)">
				<stop
   offset="0"
   style="stop-color:#0E294D"
   id="stop455" />
				<stop
   offset="1"
   style="stop-color:#204F9C"
   id="stop457" />
			</linearGradient>
			<rect
   id="Rectangle_82"
   x="604.09998"
   y="78.699997"
   class="st21"
   width="39.099998"
   height="44.5"
   style="fill:url(#Rectangle_82_1_)" />
		</g>
	</g>
	<g
   id="g477">
		<defs
   id="defs465">
			<path
   id="path623"
   d="m 657.7,77.6 c -1.8,0.7 -3.5,1.8 -4.9,3.1 -1.4,1.2 -2.4,2.7 -3.2,4.4 -0.8,1.7 -1,3.6 -0.8,5.4 0.2,2.3 1.1,4.4 2.5,6.2 1.3,1.6 3,2.9 4.9,3.7 2,0.9 4.1,1.6 6.3,2.1 1.9,0.5 3.8,1.2 5.6,2 1.4,0.6 2.5,1.5 3.4,2.7 0.8,1.1 1.1,2.7 1.1,4.7 -0.1,1.9 -1,3.7 -2.4,5.1 -1.4,1.4 -3.5,2 -6.4,2 -2.2,0.1 -4.3,-0.4 -6.2,-1.5 -1.4,-0.9 -2.5,-2.1 -3.3,-3.6 -0.6,-1.3 -0.9,-2.8 -0.9,-4.2 h -6.1 c -0.1,2.3 0.4,4.5 1.3,6.6 0.9,1.8 2.1,3.5 3.6,4.9 1.5,1.3 3.3,2.4 5.2,3.1 1.9,0.7 3.9,1 6,1.1 2,0 4,-0.3 5.9,-0.8 1.8,-0.6 3.4,-1.5 4.9,-2.6 1.4,-1.1 2.6,-2.6 3.4,-4.2 0.9,-1.7 1.3,-3.7 1.2,-5.6 0.1,-2.4 -0.4,-4.8 -1.5,-6.9 -1.1,-1.9 -2.6,-3.5 -4.4,-4.6 -1.9,-1.2 -3.9,-2.2 -6.1,-2.9 l -5.8,-2 c -1.5,-0.5 -2.9,-1.2 -4.2,-2.1 -1.1,-0.8 -1.8,-2 -2,-3.3 -0.3,-1.6 0.2,-3.3 1.2,-4.6 1,-1.3 2.2,-2.3 3.7,-2.9 1.2,-0.4 2.4,-0.7 3.7,-0.7 1.7,0 3.3,0.5 4.8,1.4 1.4,0.9 2.5,2.3 3,3.9 h 6.5 c -0.2,-1.1 -0.6,-2.2 -1.1,-3.2 -0.8,-1.3 -1.7,-2.6 -2.7,-3.7 -1.2,-1.3 -2.7,-2.3 -4.3,-3 -1.9,-0.8 -4,-1.2 -6.1,-1.1 -2,-0.1 -4,0.3 -5.8,1.1" />
		</defs>
		<clipPath
   id="SVGID_20_">
			<use
   xlink:href="#SVGID_19_"
   style="overflow:visible"
   id="use467"
   x="0"
   y="0"
   width="100%"
   height="100%" />
		</clipPath>
		<g
   id="Group_447"
   class="st22"
   clip-path="url(#SVGID_20_)">

				<linearGradient
   id="Rectangle_83_1_"
   gradientUnits="userSpaceOnUse"
   x1="-174.44501"
   y1="460.24661"
   x2="-174.4268"
   y2="460.24661"
   gradientTransform="matrix(41.7,0,0,-64.56,7525.7002,29814.398)">
				<stop
   offset="0"
   style="stop-color:#0E294D"
   id="stop470" />
				<stop
   offset="1"
   style="stop-color:#204F9C"
   id="stop472" />
			</linearGradient>
			<rect
   id="Rectangle_83"
   x="647.40002"
   y="76.400002"
   class="st23"
   width="31.6"
   height="49"
   style="fill:url(#Rectangle_83_1_)" />
		</g>
	</g>
	<path
   id="Path_363"
   class="st24"
   d="m 438.6,144.9 h -7.1 v 6.7 h 8 v 2 h -10.4 v -18.4 h 9.9 v 2 h -7.5 v 5.8 h 7.1 z" />
	<path
   id="Path_364"
   class="st24"
   d="m 453.3,149.9 c 0,1.4 0,2.6 0.1,3.6 h -2.1 l -0.2,-2.2 v 0 c -0.9,1.6 -2.6,2.5 -4.4,2.5 -2,0 -4.6,-1.2 -4.6,-5.8 v -7.7 h 2.4 v 7.3 c 0,2.5 0.8,4.2 2.9,4.2 1.4,0 2.7,-0.9 3.2,-2.3 0.2,-0.4 0.2,-0.8 0.2,-1.2 v -8 h 2.4 z" />
	<path
   id="Path_365"
   class="st24"
   d="m 457.3,144.4 c 0,-1.6 0,-2.9 -0.1,-4.1 h 2.1 v 2.6 h 0.1 c 0.5,-1.7 2,-2.8 3.7,-2.9 h 0.6 v 2.3 H 463 c -1.7,0 -3,1.2 -3.3,3 -0.1,0.4 -0.1,0.8 -0.1,1.1 v 7.1 h -2.4 z" />
	<path
   id="Path_366"
   class="st24"
   d="m 477.9,146.8 c 0,4.9 -3.4,7.1 -6.6,7.1 -3.2,0 -6.3,-2.7 -6.3,-6.8 0,-4.2 2.9,-7 6.5,-7 3.7,-0.1 6.4,2.7 6.4,6.7 z m -10.5,0.1 c 0,2.9 1.7,5.1 4,5.1 2.3,0 4,-2.1 4,-5.2 0,-3.1 -1.1,-5 -4,-5 -2.9,0 -4,2.6 -4,5.1 z" />
	<path
   id="Path_367"
   class="st24"
   d="m 480.9,144.7 c 0,-1.7 -0.1,-3.1 -0.1,-4.3 h 2.1 v 2.3 h 0.1 c 1,-1.7 2.8,-2.7 4.7,-2.6 3.3,0 5.6,2.7 5.6,6.7 0,4 -2.9,7.1 -6,7.1 -1.6,0.1 -3.2,-0.7 -4.1,-2.1 h -0.1 v 7.2 h -2.4 z m 2.4,3.5 c 0,0.3 0.1,0.7 0.2,1 0.4,1.6 1.9,2.8 3.6,2.8 2.6,0 4,-2 4,-5.1 0,-3.1 -1.4,-4.9 -3.9,-4.9 -1.7,0.1 -3.2,1.3 -3.6,3 -0.1,0.3 -0.1,0.7 -0.2,1 v 2.2 z" />
	<path
   id="Path_368"
   class="st24"
   d="m 497.9,147.4 c 0,3.2 2,4.6 4.5,4.6 1.2,0 2.5,-0.2 3.6,-0.7 l 0.5,1.7 c -1.4,0.6 -2.9,0.9 -4.4,0.8 -4.1,0 -6.5,-2.7 -6.5,-6.7 0,-4 2.4,-7.1 6.2,-7.1 3.8,0 5.5,3.8 5.5,6.2 0,0.4 0,0.8 -0.1,1.1 z m 6.9,-1.8 c 0.1,-1.5 -0.6,-3.9 -3.3,-3.9 -2.7,0 -3.5,2.2 -3.6,3.9 z" />
	<path
   id="Path_369"
   class="st24"
   d="m 512.5,134.7 c -0.6,2.2 -1.5,4.4 -2.6,6.4 l -1.5,0.2 c 0.7,-2.1 1.2,-4.3 1.6,-6.4 z" />
	<path
   id="Path_370"
   class="st24"
   d="m 512.9,151.1 c 1,0.6 2.1,0.9 3.2,0.9 1.7,0 2.5,-0.8 2.5,-2 0,-1.1 -0.7,-1.7 -2.4,-2.4 -1.7,-0.7 -3.5,-2.1 -3.5,-3.7 0,-1.6 1.7,-3.9 4.6,-3.9 1.1,0 2.2,0.3 3.2,0.8 l -0.5,1.7 c -0.8,-0.5 -1.8,-0.8 -2.7,-0.8 -1.4,0 -2.2,0.8 -2.2,1.8 0,1 0.8,1.6 2.5,2.3 1.7,0.7 3.5,2 3.5,3.9 0,1.9 -1.8,4 -4.9,4 -1.3,0 -2.6,-0.3 -3.7,-0.9 z" />
	<path
   id="Path_371"
   class="st24"
   d="m 531.1,147.4 c 0.1,3.2 2.1,4.6 4.6,4.6 1.2,0 2.5,-0.2 3.6,-0.7 l 0.5,1.7 c -1.4,0.6 -2.9,0.9 -4.4,0.8 -4.1,0 -6.5,-2.7 -6.5,-6.7 0,-4 2.4,-7.1 6.2,-7.1 3.9,0 5.5,3.8 5.5,6.2 0,0.5 -0.1,0.8 -0.1,1.1 z m 7,-1.8 c 0.1,-1.5 -0.6,-3.9 -3.3,-3.9 -2.7,0 -3.5,2.2 -3.6,3.9 z" />
	<path
   id="Path_372"
   class="st24"
   d="m 544.4,140.3 2.8,7.8 c 0.4,0.9 0.7,1.8 0.9,2.7 h 0.1 c 0.2,-0.9 0.5,-1.8 0.8,-2.7 l 2.6,-7.7 h 2.6 l -3.6,9.4 c -1.7,4.6 -2.9,6.8 -4.5,8.3 -0.8,0.7 -1.9,1.3 -3,1.5 l -0.6,-2 c 0.8,-0.3 1.4,-0.7 2,-1.2 0.9,-0.7 1.6,-1.6 2,-2.7 0.1,-0.2 0.2,-0.4 0.2,-0.6 0,-0.2 -0.1,-0.4 -0.2,-0.6 l -4.9,-12.1 z" />
	<path
   id="Path_373"
   class="st24"
   d="m 557.4,147.4 c 0,3.2 2,4.6 4.5,4.6 1.3,0 2.5,-0.2 3.7,-0.7 l 0.4,1.7 c -1.4,0.6 -2.9,0.9 -4.4,0.8 -4.1,0 -6.5,-2.7 -6.5,-6.7 0,-4 2.4,-7.1 6.2,-7.1 3.8,0 5.5,3.8 5.5,6.2 0,0.4 0,0.8 -0.1,1.1 z m 7.1,-1.8 c 0,-1.5 -0.7,-3.9 -3.3,-3.9 -2.7,0 -3.5,2.2 -3.7,3.9 z" />
	<path
   id="Path_374"
   class="st24"
   d="m 569.4,151.1 c 1,0.6 2.1,0.9 3.2,0.9 1.7,0 2.6,-0.8 2.6,-2 0,-1.1 -0.7,-1.7 -2.4,-2.4 -1.7,-0.7 -3.6,-2.1 -3.6,-3.7 0,-1.6 1.7,-3.9 4.6,-3.9 1.1,0 2.3,0.3 3.3,0.8 l -0.6,1.7 c -0.8,-0.5 -1.7,-0.8 -2.7,-0.8 -1.4,0 -2.2,0.8 -2.2,1.8 0,1 0.8,1.6 2.5,2.3 1.7,0.7 3.4,2 3.4,3.9 0,1.9 -1.8,4 -4.9,4 -1.3,0 -2.6,-0.3 -3.7,-0.9 z" />
	<path
   id="Path_375"
   class="st24"
   d="m 598.3,146.8 c 0,4.9 -3.4,7.1 -6.6,7.1 -3.2,0 -6.3,-2.7 -6.3,-6.8 0,-4.2 2.9,-7 6.5,-7 3.6,0 6.4,2.7 6.4,6.7 z m -10.5,0.1 c 0,2.9 1.7,5.1 4,5.1 2.3,0 4,-2.1 4,-5.2 0,-3.1 -1.1,-5 -4,-5 -2.8,0.1 -4,2.6 -4,5.1 z" />
	<path
   id="Path_376"
   class="st24"
   d="m 601.3,143.9 c 0,-1.2 0,-2.4 -0.2,-3.6 h 2.2 v 2.1 h 0.1 c 0.9,-1.5 2.6,-2.5 4.4,-2.4 1.8,0 4.6,1.1 4.6,5.6 v 7.9 H 610 v -7.7 c 0,-2.1 -0.8,-3.9 -3.1,-3.9 -1.5,0 -2.8,1 -3.2,2.4 -0.1,0.4 -0.2,0.8 -0.2,1.1 v 8 h -2.4 z" />
	<path
   id="Path_377"
   class="st24"
   d="m 631.8,144.9 h -7.1 v 6.7 h 8 v 2 h -10.4 v -18.4 h 9.9 v 2 h -7.6 v 5.8 h 7.1 v 1.9 z" />
	<path
   id="Path_378"
   class="st24"
   d="m 645,150.4 c 0,1.1 0,2.1 0.2,3.2 H 643 l -0.2,-1.7 h -0.1 c -0.9,1.3 -2.4,2 -4,2 -2.7,0 -4.1,-1.9 -4.1,-3.8 0,-3.2 2.9,-4.9 8,-4.9 v -0.3 c 0,-1.1 -0.3,-3 -3,-3 -1.2,0 -2.4,0.3 -3.5,1 l -0.5,-1.6 c 1.3,-0.8 2.8,-1.2 4.3,-1.1 4.1,0 5.1,2.7 5.1,5.4 z m -2.3,-3.6 c -2.7,-0.1 -5.6,0.4 -5.6,3 -0.1,1.2 0.8,2.2 2,2.3 0.1,0 0.2,0 0.3,0 1.4,0.1 2.7,-0.8 3.2,-2.2 0.1,-0.2 0.2,-0.5 0.2,-0.8 v -2.3 z" />
	<path
   id="Path_379"
   class="st24"
   d="m 648.9,144.4 c 0,-1.6 -0.1,-2.9 -0.2,-4.1 h 2.1 v 2.6 h 0.1 c 0.5,-1.6 2,-2.8 3.7,-2.9 h 0.7 v 2.3 h -0.8 c -1.7,0 -2.9,1.2 -3.3,3 0,0.4 -0.1,0.8 -0.1,1.1 v 7.1 h -2.4 z" />
	<path
   id="Path_380"
   class="st24"
   d="m 661.3,137.2 v 3.2 h 3.5 v 1.8 h -3.5 v 7.1 c 0,1.6 0.5,2.6 1.8,2.6 0.5,0 0.9,0 1.4,-0.2 l 0.2,1.9 c -0.7,0.2 -1.4,0.3 -2.1,0.3 -1,0 -1.9,-0.3 -2.7,-1 -0.7,-1 -1,-2.3 -0.9,-3.5 v -7.2 h -2 v -1.8 h 2 v -2.5 z" />
	<path
   id="Path_381"
   class="st24"
   d="m 667.5,134.1 h 2.4 v 8.3 h 0.1 c 0.4,-0.7 1,-1.3 1.7,-1.7 0.8,-0.5 1.6,-0.7 2.5,-0.7 1.7,0 4.6,1.1 4.6,5.6 v 7.9 h -2.4 V 146 c 0,-2.1 -0.8,-3.9 -3.1,-3.9 -1.5,0.1 -2.7,1 -3.2,2.4 -0.1,0.4 -0.2,0.8 -0.2,1.1 v 8 h -2.4 z" />
</g></g><g
     id="g2344"
     transform="translate(66.807337,-40.509137)"><g
       id="Layer_1"
       transform="matrix(0.12658243,0,0,0.12658243,-11.556499,75.569015)">
	<g
   id="g4154"
   transform="translate(198.84426,-251.06599)">
		<path
   id="rect4122"
   class="st0"
   d="M 0,0 H 233 V 158 H 0 Z"
   style="fill:#ffffff" />
		<g
   id="g4152">
			<path
   id="rect4124"
   class="st1"
   d="M 4.5,4 H 229 V 153.7 H 4.5 Z"
   style="fill:#243f9c" />
			<path
   id="polygon4148"
   class="st2"
   d="m 176.7,76.7 -4.3,3.2 1.2,6.3 -4.9,-3.6 -4.9,3.5 1.2,-6.2 -4.2,-3.2 h 6 l 1.9,-5.8 2,5.8 z M 64.9,79.9 60.7,76.7 h 5.9 l 2,-5.8 1.9,5.8 h 6 l -4.2,3.2 1.2,6.3 -4.9,-3.6 -4.9,3.5 z m 105.4,22.2 -4.3,3.3 1.2,6.2 -4.9,-3.5 -4.9,3.4 1.2,-6.1 -4.2,-3.3 h 6 l 1.9,-5.8 2,5.9 z m -99.6,3.3 -4.2,-3.3 h 6 l 1.9,-5.8 2,5.9 5.9,-0.1 -4.2,3.3 1.2,6.2 -4.9,-3.5 -4.9,3.4 z m 99.6,-53.8 -4.3,3.2 1.2,6.3 -4.9,-3.6 -4.9,3.5 1.2,-6.2 -4.2,-3.2 h 6 l 1.9,-5.8 2,5.8 z m -99.6,3.2 -4.2,-3.2 h 6 l 1.9,-5.8 2,5.8 h 5.9 l -4.2,3.2 1.2,6.3 -4.9,-3.6 -4.9,3.5 z m 30.3,65.6 -4.2,3.2 1.1,6.3 -4.8,-3.6 -4.9,3.5 1.1,-6.2 -4.2,-3.2 h 6 l 2,-5.8 1.9,5.8 z m 38.3,3.2 -4.2,-3.2 h 6 l 1.9,-5.8 2,5.8 h 6 l -4.3,3.2 1.2,6.3 -4.9,-3.6 -4.9,3.5 z M 101,32.5 l -4.2,3.2 1.1,6.3 -4.8,-3.6 -4.9,3.5 1.1,-6.2 -4.2,-3.2 h 6 l 2,-5.8 1.9,5.8 z m 38.3,3.2 -4.2,-3.2 h 6 l 1.9,-5.8 2,5.8 h 6 l -4.3,3.2 1.2,6.3 -4.9,-3.6 -4.9,3.5 z m -12.7,-9.7 -4.3,3.2 1.2,6.3 -4.9,-3.6 -4.9,3.5 1.2,-6.2 -4.2,-3.2 h 6 l 1.9,-5.8 2,5.8 z m -11.7,104.5 -4.2,-3.3 h 6 l 1.9,-5.8 2,5.8 h 6 l -4.3,3.3 1.2,6.2 -4.9,-3.5 -4.9,3.4 z"
   style="fill:#fcec00" />
		</g>
	</g>
</g><g
       aria-label="programme of the European Union implemented by"
       id="text720"
       style="font-size:5.0993px;line-height:1.25;font-family:'Franklin Gothic FS';-inkscape-font-specification:'Franklin Gothic FS';white-space:pre;inline-size:44.5997;fill:#042a3d;stroke-width:0.318707"><path
         d="m 45.699355,48.319484 c 0.21417,0.326355 0.418142,0.448738 0.744497,0.448738 0.596619,0 1.004563,-0.535427 1.004563,-1.325818 0,-0.785292 -0.402845,-1.320719 -0.994364,-1.320719 -0.356951,0 -0.596618,0.168277 -0.795491,0.555824 v -0.489533 h -0.351851 v 3.365538 h 0.392646 z m 0,-0.530328 v -0.703703 c 0.101986,-0.387547 0.356951,-0.622115 0.668008,-0.622115 0.407944,0 0.65271,0.372249 0.65271,1.004562 0,0.331455 -0.06119,0.576221 -0.188674,0.744498 -0.107085,0.137681 -0.295759,0.234568 -0.464036,0.234568 -0.321256,0 -0.606817,-0.280461 -0.668008,-0.65781 z"
         id="path1986" /><path
         d="m 48.004225,48.701931 h 0.392646 v -1.330917 c 0,-0.535427 0.372249,-0.912775 0.846484,-0.871981 v -0.372248 c -0.05609,-0.0051 -0.112185,-0.0102 -0.14278,-0.0102 -0.193774,0 -0.382448,0.08669 -0.494633,0.21927 -0.09179,0.112184 -0.137681,0.188674 -0.260064,0.43854 v -0.58642 h -0.341653 z"
         id="path1988" /><path
         d="m 49.66658,48.329682 c 0.203972,0.29576 0.474235,0.43854 0.841385,0.43854 0.678206,0 1.16264,-0.540526 1.16264,-1.295222 0,-0.820988 -0.43854,-1.351315 -1.121846,-1.351315 -0.673108,0 -1.137144,0.540526 -1.137144,1.31562 0,0.351851 0.08669,0.647611 0.254965,0.892377 z m 0.87198,0.117284 c -0.443639,0 -0.698604,-0.372249 -0.698604,-1.014761 0,-0.305958 0.06119,-0.550724 0.173376,-0.713902 0.112185,-0.168277 0.321256,-0.275362 0.520129,-0.275362 0.203972,0 0.407944,0.107085 0.530327,0.275362 0.122383,0.168277 0.178476,0.397746 0.178476,0.7292 0,0.622115 -0.265164,0.999463 -0.703704,0.999463 z"
         id="path1990" /><path
         d="m 54.306938,45.79533 c -0.05099,-0.0051 -0.07139,-0.0051 -0.101986,-0.0051 -0.234567,0 -0.336553,0.0255 -0.423242,0.112184 -0.08669,0.08159 -0.132581,0.178476 -0.158078,0.326356 -0.168277,-0.08159 -0.326355,-0.117284 -0.515029,-0.117284 -0.550725,0 -0.958669,0.367149 -0.958669,0.856682 0,0.275362 0.09179,0.464036 0.326356,0.668008 -0.254965,0.122384 -0.346753,0.239667 -0.346753,0.443639 0,0.173377 0.06119,0.280462 0.244767,0.407944 -0.265164,0.101986 -0.382448,0.254965 -0.382448,0.499732 0,0.43344 0.397746,0.662909 1.147343,0.662909 0.836285,0 1.264626,-0.244767 1.264626,-0.719002 0,-0.209071 -0.09689,-0.382447 -0.275362,-0.499731 -0.158078,-0.101986 -0.326355,-0.132582 -0.846484,-0.14788 -0.464036,-0.0153 -0.566022,-0.0255 -0.65271,-0.06629 -0.08159,-0.04079 -0.127483,-0.101986 -0.127483,-0.183575 0,-0.122383 0.132582,-0.239667 0.265164,-0.239667 0.0204,0 0.08159,0.0102 0.163177,0.0255 0.05099,0.0102 0.107086,0.0153 0.173377,0.0153 0.560923,0 0.963767,-0.346752 0.963767,-0.836285 0,-0.214171 -0.08159,-0.423242 -0.239667,-0.606817 0.03569,-0.224369 0.14788,-0.29066 0.479334,-0.285561 z m -1.193236,1.738861 c -0.336554,0 -0.560923,-0.21927 -0.560923,-0.550724 0,-0.326355 0.234568,-0.560923 0.566022,-0.560923 0.321256,0 0.555824,0.244766 0.555824,0.571122 0,0.316156 -0.234568,0.540525 -0.560923,0.540525 z m -0.744498,1.412506 c 0,-0.158078 0.07139,-0.244766 0.275363,-0.346752 0.117283,0.0153 0.351851,0.0306 0.606816,0.0357 0.43854,0.0102 0.484434,0.0153 0.606817,0.07139 0.117284,0.05099 0.173376,0.127483 0.173376,0.239667 0,0.142781 -0.09179,0.254965 -0.265163,0.311058 -0.173377,0.05609 -0.392647,0.09179 -0.596619,0.09179 -0.295759,0 -0.566022,-0.07649 -0.703703,-0.188674 -0.05609,-0.05099 -0.09689,-0.132582 -0.09689,-0.214171 z"
         id="path1992" /><path
         d="m 54.760772,48.701931 h 0.392646 v -1.330917 c 0,-0.535427 0.372249,-0.912775 0.846484,-0.871981 v -0.372248 c -0.05609,-0.0051 -0.112185,-0.0102 -0.142781,-0.0102 -0.193773,0 -0.382447,0.08669 -0.494632,0.21927 -0.09179,0.112184 -0.137681,0.188674 -0.260064,0.43854 v -0.58642 h -0.341653 z"
         id="path1994" /><path
         d="m 58.406764,48.701931 c -0.0408,-0.152979 -0.05609,-0.305958 -0.05609,-0.489533 v -1.065753 c 0,-0.36715 -0.04589,-0.566023 -0.168277,-0.7343 -0.147879,-0.198872 -0.402844,-0.295759 -0.780192,-0.295759 -0.418143,0 -0.7343,0.101986 -0.933172,0.305958 -0.107086,0.107085 -0.152979,0.203972 -0.188674,0.392646 l 0.36205,0.06119 c 0.06629,-0.300859 0.295759,-0.458937 0.673107,-0.458937 0.270263,0 0.458937,0.06629 0.560923,0.203972 0.06629,0.08669 0.09689,0.234567 0.09689,0.443639 v 0.08159 c -0.158078,-0.0102 -0.234568,-0.0102 -0.326355,-0.0102 -0.43854,0 -0.780193,0.06119 -1.009661,0.183575 -0.260065,0.132582 -0.423242,0.402844 -0.423242,0.688405 0,0.448739 0.356951,0.759796 0.877079,0.759796 0.428341,0 0.678207,-0.14788 0.882179,-0.520129 0.0153,0.285561 0.0204,0.331455 0.04589,0.453838 z m -1.774557,-0.683306 c 0,-0.382448 0.356951,-0.58642 1.009662,-0.58642 0.06629,0 0.198872,0.0051 0.331454,0.0102 0.0051,0.06629 0.0051,0.117284 0.0051,0.163178 0,0.484433 -0.356951,0.861781 -0.810788,0.861781 -0.326355,0 -0.535427,-0.178475 -0.535427,-0.448738 z"
         id="path1996" /><path
         d="m 59.135961,48.701931 h 0.372249 v -1.504293 c 0,-0.423242 0.270263,-0.754697 0.617015,-0.754697 0.14278,0 0.280462,0.06629 0.377348,0.183575 0.08159,0.101986 0.117284,0.224369 0.117284,0.423242 v 1.652173 h 0.377348 v -1.417605 c 0,-0.280462 0.05099,-0.443639 0.193774,-0.606817 0.127482,-0.137681 0.29066,-0.21927 0.448738,-0.21927 0.158078,0 0.321256,0.08669 0.402845,0.224369 0.06629,0.112185 0.08159,0.183575 0.08159,0.458937 v 1.560386 h 0.382447 v -1.560386 c 0,-0.36205 -0.0255,-0.515029 -0.117284,-0.662909 -0.132582,-0.21927 -0.377348,-0.356951 -0.642512,-0.356951 -0.346752,0 -0.627213,0.209072 -0.79549,0.601718 -0.09689,-0.382448 -0.356951,-0.601718 -0.703704,-0.601718 -0.331454,0 -0.586419,0.183575 -0.775093,0.550725 v -0.484434 h -0.336554 z"
         id="path1998" /><path
         d="m 63.286786,48.701931 h 0.372249 v -1.504293 c 0,-0.423242 0.270263,-0.754697 0.617016,-0.754697 0.14278,0 0.280461,0.06629 0.377348,0.183575 0.08159,0.101986 0.117284,0.224369 0.117284,0.423242 v 1.652173 h 0.377348 v -1.417605 c 0,-0.280462 0.05099,-0.443639 0.193773,-0.606817 0.127483,-0.137681 0.29066,-0.21927 0.448739,-0.21927 0.158078,0 0.321255,0.08669 0.402844,0.224369 0.06629,0.112185 0.08159,0.183575 0.08159,0.458937 v 1.560386 h 0.382448 v -1.560386 c 0,-0.36205 -0.0255,-0.515029 -0.117284,-0.662909 -0.132582,-0.21927 -0.377349,-0.356951 -0.642512,-0.356951 -0.346753,0 -0.627214,0.209072 -0.795491,0.601718 -0.09689,-0.382448 -0.356951,-0.601718 -0.703703,-0.601718 -0.331455,0 -0.58642,0.183575 -0.775094,0.550725 v -0.484434 h -0.336554 z"
         id="path2000" /><path
         d="m 69.462028,47.478099 c -0.0051,-0.346752 -0.04589,-0.555824 -0.147879,-0.775094 -0.178476,-0.367149 -0.525228,-0.58132 -0.94847,-0.58132 -0.688406,0 -1.16774,0.545625 -1.16774,1.336017 0,0.785292 0.464036,1.31052 1.152442,1.31052 0.50993,0 0.902576,-0.275362 1.065754,-0.739399 l -0.362051,-0.07649 c -0.05609,0.132582 -0.09689,0.203972 -0.152979,0.265164 -0.127482,0.147879 -0.321256,0.229468 -0.525228,0.229468 -0.270263,0 -0.530327,-0.152979 -0.642511,-0.382447 -0.07649,-0.158079 -0.101986,-0.290661 -0.101986,-0.58642 z m -1.810251,-0.29066 c 0.0255,-0.239667 0.06629,-0.36205 0.178475,-0.499731 0.137681,-0.173377 0.321256,-0.265164 0.540526,-0.265164 0.224369,0 0.392646,0.08669 0.520129,0.265164 0.101986,0.147879 0.137681,0.265163 0.14278,0.499731 z"
         id="path2002" /><path
         d="m 71.379347,48.329682 c 0.203972,0.29576 0.474235,0.43854 0.841385,0.43854 0.678207,0 1.16264,-0.540526 1.16264,-1.295222 0,-0.820988 -0.43854,-1.351315 -1.121846,-1.351315 -0.673108,0 -1.137144,0.540526 -1.137144,1.31562 0,0.351851 0.08669,0.647611 0.254965,0.892377 z m 0.87198,0.117284 c -0.443639,0 -0.698604,-0.372249 -0.698604,-1.014761 0,-0.305958 0.06119,-0.550724 0.173377,-0.713902 0.112184,-0.168277 0.321255,-0.275362 0.520128,-0.275362 0.203972,0 0.407944,0.107085 0.530327,0.275362 0.122384,0.168277 0.178476,0.397746 0.178476,0.7292 0,0.622115 -0.265164,0.999463 -0.703704,0.999463 z"
         id="path2004" /><path
         d="m 73.985085,48.701931 h 0.36205 v -2.207997 h 0.611916 v -0.305958 h -0.611916 c 0,-0.275362 0.0051,-0.295759 0.04589,-0.402845 0.06119,-0.158078 0.224369,-0.239667 0.479334,-0.239667 0.07649,0 0.127483,0.0102 0.234568,0.03569 v -0.316156 c -0.173376,-0.0255 -0.265164,-0.03569 -0.372249,-0.03569 -0.326355,0 -0.58132,0.152979 -0.668008,0.397745 -0.05609,0.14788 -0.07139,0.249866 -0.08159,0.560923 h -0.443639 v 0.305958 h 0.443639 z"
         id="path2006" /><path
         d="m 76.769287,48.008426 c 0,0.504831 0.244767,0.764895 0.719002,0.764895 0.107085,0 0.198872,-0.0051 0.372249,-0.0306 v -0.311057 c -0.137682,0.0255 -0.209072,0.0306 -0.300859,0.0306 -0.270263,0 -0.407944,-0.132582 -0.407944,-0.392646 v -1.575684 h 0.566022 v -0.305958 h -0.566022 v -0.662909 l -0.36715,0.0306 -0.0153,0.632313 h -0.443639 v 0.305958 h 0.443639 z"
         id="path2008" /><path
         d="m 78.293971,48.701931 h 0.392646 v -1.356414 c 0,-0.295759 0.06119,-0.494632 0.209072,-0.662909 0.127482,-0.147879 0.316156,-0.239667 0.489532,-0.239667 0.193774,0 0.372249,0.112185 0.43854,0.280462 0.04079,0.101986 0.05099,0.193773 0.05099,0.453837 v 1.524691 H 80.2674 V 47.17724 c 0,-0.418142 -0.0255,-0.545625 -0.152979,-0.7292 -0.14278,-0.21417 -0.382447,-0.331454 -0.657809,-0.331454 -0.341653,0 -0.566023,0.152979 -0.769995,0.535426 v -1.351314 h -0.392646 z"
         id="path2010" /><path
         d="m 83.072006,47.478099 c -0.0051,-0.346752 -0.04589,-0.555824 -0.14788,-0.775094 -0.178475,-0.367149 -0.525228,-0.58132 -0.94847,-0.58132 -0.688405,0 -1.167739,0.545625 -1.167739,1.336017 0,0.785292 0.464036,1.31052 1.152442,1.31052 0.50993,0 0.902576,-0.275362 1.065753,-0.739399 l -0.36205,-0.07649 c -0.05609,0.132582 -0.09689,0.203972 -0.152979,0.265164 -0.127483,0.147879 -0.321256,0.229468 -0.525228,0.229468 -0.270263,0 -0.530327,-0.152979 -0.642512,-0.382447 -0.07649,-0.158079 -0.101986,-0.290661 -0.101986,-0.58642 z m -1.810252,-0.29066 c 0.0255,-0.239667 0.06629,-0.36205 0.178476,-0.499731 0.137681,-0.173377 0.321256,-0.265164 0.540526,-0.265164 0.224369,0 0.392646,0.08669 0.520128,0.265164 0.101986,0.147879 0.137681,0.265163 0.142781,0.499731 z"
         id="path2012" /><path
         d="m 45.337304,55.076057 h 2.197799 v -0.372249 h -1.774557 v -1.223832 h 1.371712 v -0.346752 h -1.371712 v -1.086151 h 1.728663 v -0.372249 h -2.151905 z"
         id="path2014" /><path
         d="m 47.96853,54.168381 c 0,0.601718 0.316157,0.973967 0.826087,0.973967 0.351851,0 0.622114,-0.188674 0.80059,-0.545625 v 0.479334 h 0.351852 v -2.513955 h -0.392647 v 1.417605 c 0,0.464037 -0.311057,0.841385 -0.698604,0.841385 -0.137681,0 -0.275362,-0.06119 -0.367149,-0.173376 -0.08669,-0.101986 -0.127483,-0.249866 -0.127483,-0.479335 V 52.562102 H 47.96853 Z"
         id="path2016" /><path
         d="M 50.727244,55.076057 H 51.11989 V 53.74514 c 0,-0.535427 0.372249,-0.912775 0.846484,-0.871981 V 52.50091 c -0.05609,-0.0051 -0.112185,-0.0102 -0.142781,-0.0102 -0.193773,0 -0.382447,0.08669 -0.494632,0.21927 -0.09179,0.112184 -0.137681,0.188674 -0.260064,0.438539 V 52.5621 h -0.341653 z"
         id="path2018" /><path
         d="m 52.389599,54.703808 c 0.203972,0.295759 0.474235,0.43854 0.841384,0.43854 0.678207,0 1.162641,-0.540526 1.162641,-1.295222 0,-0.820988 -0.43854,-1.351315 -1.121846,-1.351315 -0.673108,0 -1.137144,0.540526 -1.137144,1.315619 0,0.351852 0.08669,0.647612 0.254965,0.892378 z m 0.87198,0.117284 c -0.443639,0 -0.698604,-0.372249 -0.698604,-1.014761 0,-0.305958 0.06119,-0.550724 0.173376,-0.713902 0.112185,-0.168277 0.321256,-0.275362 0.520129,-0.275362 0.203972,0 0.407944,0.107085 0.530327,0.275362 0.122383,0.168277 0.178475,0.397746 0.178475,0.7292 0,0.622115 -0.265163,0.999463 -0.703703,0.999463 z"
         id="path2020" /><path
         d="m 55.336979,54.693609 c 0.214171,0.326355 0.418143,0.448739 0.744498,0.448739 0.596618,0 1.004562,-0.535427 1.004562,-1.325818 0,-0.785292 -0.402844,-1.320719 -0.994363,-1.320719 -0.356951,0 -0.596618,0.168277 -0.795491,0.555824 v -0.489533 h -0.351852 v 3.365538 h 0.392646 z m 0,-0.530327 v -0.703703 c 0.101986,-0.387547 0.356951,-0.622115 0.668009,-0.622115 0.407944,0 0.65271,0.372249 0.65271,1.004562 0,0.331455 -0.06119,0.576221 -0.188674,0.744498 -0.107085,0.137681 -0.295759,0.234568 -0.464036,0.234568 -0.321256,0 -0.606817,-0.280462 -0.668009,-0.65781 z"
         id="path2022" /><path
         d="m 59.732568,53.852225 c -0.0051,-0.346753 -0.04589,-0.555824 -0.147879,-0.775094 -0.178476,-0.367149 -0.525228,-0.58132 -0.94847,-0.58132 -0.688406,0 -1.16774,0.545625 -1.16774,1.336017 0,0.785292 0.464037,1.31052 1.152442,1.31052 0.50993,0 0.902576,-0.275362 1.065754,-0.739399 l -0.362051,-0.07649 c -0.05609,0.132582 -0.09689,0.203972 -0.152979,0.265163 -0.127482,0.14788 -0.321255,0.229469 -0.525227,0.229469 -0.270263,0 -0.530328,-0.152979 -0.642512,-0.382448 -0.07649,-0.158078 -0.101986,-0.29066 -0.101986,-0.586419 z m -1.810251,-0.29066 c 0.0255,-0.239667 0.06629,-0.362051 0.178475,-0.499732 0.137682,-0.173376 0.321256,-0.265163 0.540526,-0.265163 0.224369,0 0.392646,0.08669 0.520129,0.265163 0.101986,0.14788 0.137681,0.265164 0.14278,0.499732 z"
         id="path2024" /><path
         d="M 62.28731,55.076057 C 62.24652,54.923078 62.23122,54.770099 62.23122,54.586524 V 53.52077 c 0,-0.367149 -0.04589,-0.566022 -0.168277,-0.734299 -0.14788,-0.198873 -0.402845,-0.295759 -0.780193,-0.295759 -0.418142,0 -0.734299,0.101986 -0.933172,0.305958 -0.107085,0.107085 -0.152979,0.203972 -0.188674,0.392646 l 0.36205,0.06119 c 0.06629,-0.300858 0.29576,-0.458937 0.673108,-0.458937 0.270263,0 0.458937,0.06629 0.560923,0.203972 0.06629,0.08669 0.09689,0.234568 0.09689,0.44364 v 0.08159 c -0.158079,-0.0102 -0.234568,-0.0102 -0.326355,-0.0102 -0.43854,0 -0.780193,0.06119 -1.009662,0.183575 -0.260064,0.132581 -0.423242,0.402844 -0.423242,0.688405 0,0.448738 0.356951,0.759796 0.87708,0.759796 0.428341,0 0.678207,-0.14788 0.882179,-0.520129 0.0153,0.285561 0.0204,0.331455 0.04589,0.453838 z m -1.774556,-0.683306 c 0,-0.382448 0.356951,-0.58642 1.009661,-0.58642 0.06629,0 0.198873,0.0051 0.331455,0.0102 0.0051,0.06629 0.0051,0.117284 0.0051,0.163177 0,0.484434 -0.356951,0.861782 -0.810789,0.861782 -0.326355,0 -0.535426,-0.178475 -0.535426,-0.448738 z"
         id="path2026" /><path
         d="m 63.016507,55.076057 h 0.392646 v -1.38191 c 0,-0.494633 0.300859,-0.861782 0.703704,-0.861782 0.336554,0 0.520128,0.21927 0.520128,0.627214 v 1.616478 h 0.36715 v -1.453301 c 0,-0.372249 -0.0255,-0.560923 -0.09179,-0.688405 -0.142781,-0.275362 -0.407944,-0.43854 -0.724101,-0.43854 -0.346752,0 -0.545625,0.132582 -0.805689,0.530327 v -0.464036 h -0.362051 z"
         id="path2028" /><path
         d="m 69.375324,51.674824 h -0.351852 v 2.223295 c 0,0.300858 -0.04589,0.479334 -0.168276,0.622114 -0.132582,0.158078 -0.362051,0.249866 -0.627214,0.249866 -0.265164,0 -0.51503,-0.09689 -0.632314,-0.249866 -0.09689,-0.127482 -0.137681,-0.305958 -0.137681,-0.622114 v -2.223295 h -0.423242 v 2.223295 c 0,0.387546 0.06119,0.632313 0.203972,0.841384 0.188675,0.270263 0.504831,0.402845 0.95357,0.402845 0.428341,0 0.754696,-0.137681 0.953569,-0.402845 0.163177,-0.214171 0.229468,-0.453838 0.229468,-0.841384 z"
         id="path2030" /><path
         d="m 70.104511,55.076057 h 0.392646 v -1.38191 c 0,-0.494633 0.300858,-0.861782 0.703703,-0.861782 0.336554,0 0.520129,0.21927 0.520129,0.627214 v 1.616478 h 0.367149 v -1.453301 c 0,-0.372249 -0.0255,-0.560923 -0.09179,-0.688405 -0.142781,-0.275362 -0.407944,-0.43854 -0.724101,-0.43854 -0.346752,0 -0.545625,0.132582 -0.805689,0.530327 v -0.464036 h -0.36205 z"
         id="path2032" /><path
         d="m 72.847934,52.108264 h 0.423242 v -0.43344 h -0.423242 z m 0.0153,2.967793 h 0.392646 v -2.513955 h -0.392646 z"
         id="path2034" /><path
         d="m 74.056448,54.703808 c 0.203972,0.295759 0.474235,0.43854 0.841385,0.43854 0.678207,0 1.16264,-0.540526 1.16264,-1.295222 0,-0.820988 -0.43854,-1.351315 -1.121846,-1.351315 -0.673107,0 -1.137144,0.540526 -1.137144,1.315619 0,0.351852 0.08669,0.647612 0.254965,0.892378 z m 0.871981,0.117284 c -0.44364,0 -0.698605,-0.372249 -0.698605,-1.014761 0,-0.305958 0.06119,-0.550724 0.173377,-0.713902 0.112184,-0.168277 0.321256,-0.275362 0.520128,-0.275362 0.203972,0 0.407944,0.107085 0.530327,0.275362 0.122384,0.168277 0.178476,0.397746 0.178476,0.7292 0,0.622115 -0.265164,0.999463 -0.703703,0.999463 z"
         id="path2036" /><path
         d="m 76.611184,55.076057 h 0.392646 v -1.38191 c 0,-0.494633 0.300859,-0.861782 0.703704,-0.861782 0.336554,0 0.520128,0.21927 0.520128,0.627214 v 1.616478 h 0.36715 v -1.453301 c 0,-0.372249 -0.0255,-0.560923 -0.09179,-0.688405 -0.142781,-0.275362 -0.407944,-0.43854 -0.724101,-0.43854 -0.346752,0 -0.545625,0.132582 -0.805689,0.530327 v -0.464036 h -0.362051 z"
         id="path2038" /><path
         d="m 45.286311,58.482391 h 0.423242 V 58.04895 h -0.423242 z m 0.0153,2.967792 h 0.392646 v -2.513955 h -0.392646 z"
         id="path2040" /><path
         d="m 46.474439,61.450183 h 0.372249 V 59.94589 c 0,-0.423242 0.270263,-0.754697 0.617015,-0.754697 0.142781,0 0.280462,0.06629 0.377348,0.183575 0.08159,0.101986 0.117284,0.224369 0.117284,0.423242 v 1.652173 h 0.377349 v -1.417605 c 0,-0.280462 0.05099,-0.443639 0.193773,-0.606817 0.127482,-0.137681 0.29066,-0.21927 0.448738,-0.21927 0.158079,0 0.321256,0.08669 0.402845,0.224369 0.06629,0.112185 0.08159,0.183575 0.08159,0.458937 v 1.560386 h 0.382447 v -1.560386 c 0,-0.36205 -0.0255,-0.515029 -0.117284,-0.662909 -0.132581,-0.219269 -0.377348,-0.356951 -0.642511,-0.356951 -0.346753,0 -0.627214,0.209072 -0.795491,0.601718 -0.09689,-0.382448 -0.356951,-0.601718 -0.703704,-0.601718 -0.331454,0 -0.586419,0.183575 -0.775093,0.550725 V 58.936228 H 46.47444 Z"
         id="path2042" /><path
         d="m 50.951618,61.067736 c 0.21417,0.326355 0.418142,0.448738 0.744498,0.448738 0.596618,0 1.004562,-0.535426 1.004562,-1.325818 0,-0.785292 -0.402845,-1.320719 -0.994364,-1.320719 -0.356951,0 -0.596618,0.168277 -0.795491,0.555824 v -0.489533 h -0.351851 v 3.365538 h 0.392646 z m 0,-0.530327 v -0.703704 c 0.101986,-0.387547 0.356951,-0.622114 0.668008,-0.622114 0.407944,0 0.65271,0.372248 0.65271,1.004562 0,0.331454 -0.06119,0.576221 -0.188674,0.744497 -0.107085,0.137682 -0.295759,0.234568 -0.464036,0.234568 -0.321256,0 -0.606817,-0.280461 -0.668008,-0.657809 z"
         id="path2044" /><path
         d="m 53.256488,61.450183 h 0.392646 V 58.04895 h -0.392646 z"
         id="path2046" /><path
         d="m 56.458836,60.226351 c -0.0051,-0.346752 -0.04589,-0.555823 -0.147879,-0.775093 -0.178476,-0.36715 -0.525228,-0.581321 -0.94847,-0.581321 -0.688406,0 -1.16774,0.545626 -1.16774,1.336017 0,0.785292 0.464036,1.31052 1.152442,1.31052 0.50993,0 0.902576,-0.275362 1.065754,-0.739398 l -0.362051,-0.07649 c -0.05609,0.132582 -0.09689,0.203972 -0.152979,0.265164 -0.127482,0.147879 -0.321256,0.229468 -0.525228,0.229468 -0.270263,0 -0.530327,-0.152979 -0.642511,-0.382447 -0.07649,-0.158079 -0.101986,-0.29066 -0.101986,-0.58642 z m -1.810251,-0.29066 c 0.0255,-0.239667 0.06629,-0.36205 0.178475,-0.499731 0.137681,-0.173376 0.321256,-0.265164 0.540526,-0.265164 0.224369,0 0.392646,0.08669 0.520129,0.265164 0.101986,0.147879 0.137681,0.265163 0.14278,0.499731 z"
         id="path2048" /><path
         d="m 56.989148,61.450183 h 0.372249 V 59.94589 c 0,-0.423242 0.270263,-0.754697 0.617016,-0.754697 0.14278,0 0.280461,0.06629 0.377348,0.183575 0.08159,0.101986 0.117284,0.224369 0.117284,0.423242 v 1.652173 h 0.377348 v -1.417605 c 0,-0.280462 0.05099,-0.443639 0.193773,-0.606817 0.127483,-0.137681 0.29066,-0.21927 0.448739,-0.21927 0.158078,0 0.321256,0.08669 0.402844,0.224369 0.06629,0.112185 0.08159,0.183575 0.08159,0.458937 v 1.560386 h 0.382448 v -1.560386 c 0,-0.36205 -0.0255,-0.515029 -0.117284,-0.662909 -0.132582,-0.219269 -0.377348,-0.356951 -0.642512,-0.356951 -0.346752,0 -0.627214,0.209072 -0.795491,0.601718 -0.09689,-0.382448 -0.356951,-0.601718 -0.703703,-0.601718 -0.331455,0 -0.58642,0.183575 -0.775094,0.550725 v -0.484434 h -0.336554 z"
         id="path2050" /><path
         d="m 63.164389,60.226351 c -0.0051,-0.346752 -0.04589,-0.555823 -0.147879,-0.775093 -0.178476,-0.36715 -0.525228,-0.581321 -0.94847,-0.581321 -0.688406,0 -1.16774,0.545626 -1.16774,1.336017 0,0.785292 0.464036,1.31052 1.152442,1.31052 0.50993,0 0.902576,-0.275362 1.065754,-0.739398 l -0.362051,-0.07649 c -0.05609,0.132582 -0.09689,0.203972 -0.152979,0.265164 -0.127482,0.147879 -0.321256,0.229468 -0.525228,0.229468 -0.270262,0 -0.530327,-0.152979 -0.642511,-0.382447 -0.07649,-0.158079 -0.101986,-0.29066 -0.101986,-0.58642 z m -1.810251,-0.29066 c 0.0255,-0.239667 0.06629,-0.36205 0.178475,-0.499731 0.137681,-0.173376 0.321256,-0.265164 0.540526,-0.265164 0.224369,0 0.392646,0.08669 0.520129,0.265164 0.101986,0.147879 0.137681,0.265163 0.14278,0.499731 z"
         id="path2052" /><path
         d="m 63.694701,61.450183 h 0.392647 v -1.38191 c 0,-0.494632 0.300858,-0.861782 0.703703,-0.861782 0.336554,0 0.520129,0.21927 0.520129,0.627214 v 1.616478 h 0.367149 v -1.4533 c 0,-0.372249 -0.0255,-0.560923 -0.09179,-0.688406 -0.142781,-0.275362 -0.407944,-0.43854 -0.724101,-0.43854 -0.346752,0 -0.545625,0.132582 -0.805689,0.530328 v -0.464037 h -0.362051 z"
         id="path2054" /><path
         d="m 66.443219,60.756678 c 0,0.504831 0.244766,0.764895 0.719001,0.764895 0.107085,0 0.198873,-0.0051 0.372249,-0.03059 V 61.17992 c -0.137681,0.0255 -0.209072,0.0306 -0.300859,0.0306 -0.270263,0 -0.407944,-0.132582 -0.407944,-0.392646 V 59.24219 h 0.566022 v -0.305958 h -0.566022 v -0.662909 l -0.36715,0.0306 -0.0153,0.632313 h -0.44364 v 0.305958 h 0.44364 z"
         id="path2056" /><path
         d="m 69.941322,60.226351 c -0.0051,-0.346752 -0.04589,-0.555823 -0.14788,-0.775093 -0.178475,-0.36715 -0.525228,-0.581321 -0.948469,-0.581321 -0.688406,0 -1.16774,0.545626 -1.16774,1.336017 0,0.785292 0.464036,1.31052 1.152442,1.31052 0.50993,0 0.902576,-0.275362 1.065753,-0.739398 l -0.36205,-0.07649 c -0.05609,0.132582 -0.09689,0.203972 -0.152979,0.265164 -0.127482,0.147879 -0.321256,0.229468 -0.525228,0.229468 -0.270263,0 -0.530327,-0.152979 -0.642512,-0.382447 -0.07649,-0.158079 -0.101986,-0.29066 -0.101986,-0.58642 z m -1.810251,-0.29066 c 0.0255,-0.239667 0.06629,-0.36205 0.178475,-0.499731 0.137681,-0.173376 0.321256,-0.265164 0.540526,-0.265164 0.224369,0 0.392646,0.08669 0.520128,0.265164 0.101986,0.147879 0.137682,0.265163 0.142781,0.499731 z"
         id="path2058" /><path
         d="m 72.128914,61.450183 h 0.356951 V 58.04895 h -0.392646 v 1.228931 c -0.224369,-0.300858 -0.423242,-0.413043 -0.739398,-0.413043 -0.606817,0 -1.030059,0.555824 -1.030059,1.351315 0,0.759795 0.418143,1.30542 1.009661,1.30542 0.362051,0 0.58642,-0.14278 0.795491,-0.499731 z m -0.03569,-1.01986 c 0,0.249866 -0.06119,0.36715 -0.183575,0.51503 -0.137681,0.158078 -0.321256,0.254965 -0.50993,0.254965 -0.407944,0 -0.647611,-0.382448 -0.647611,-1.035158 0,-0.601718 0.260065,-0.989265 0.662909,-0.989265 0.198873,0 0.413044,0.101986 0.530327,0.260065 0.09689,0.122383 0.14788,0.234568 0.14788,0.469135 z"
         id="path2060" /><path
         d="m 74.545964,61.450183 h 0.188675 l 0.14278,-0.418142 c 0.198873,0.331454 0.443639,0.484433 0.785292,0.484433 0.606817,0 1.035158,-0.555824 1.035158,-1.336016 0,-0.780193 -0.413043,-1.310521 -1.01986,-1.310521 -0.326355,0 -0.535426,0.137682 -0.739398,0.484434 V 58.04895 h -0.392647 z m 0.392647,-1.550187 c 0.0357,-0.224369 0.08159,-0.336554 0.198872,-0.474235 0.137681,-0.152979 0.300859,-0.234568 0.484434,-0.234568 0.183575,0 0.36205,0.09179 0.458937,0.234568 0.127482,0.188674 0.203972,0.494632 0.203972,0.80569 0,0.586419 -0.260065,0.963767 -0.662909,0.963767 -0.198873,0 -0.407944,-0.101986 -0.530327,-0.260064 -0.09179,-0.127483 -0.127483,-0.234568 -0.152979,-0.469136 z"
         id="path2062" /><path
         d="m 76.963026,61.995808 v 0.311058 c 0.132582,0.03059 0.198873,0.04079 0.295759,0.04079 0.173377,0 0.300859,-0.0306 0.392647,-0.09689 0.152979,-0.107085 0.260064,-0.265163 0.346752,-0.50483 l 1.009661,-2.809715 h -0.331454 l -0.688406,1.891841 -0.673107,-1.891841 h -0.397746 l 0.871981,2.468062 c -0.07139,0.224369 -0.117284,0.331454 -0.168277,0.413043 -0.08669,0.14278 -0.21927,0.21417 -0.397746,0.21417 -0.07649,0 -0.132581,-0.0102 -0.260064,-0.0357 z"
         id="path2064" /></g></g></svg>
